<?xml version="1.0" encoding="utf-8"?>
<!-- Generator: Adobe Illustrator 24.0.0, SVG Export Plug-In . SVG Version: 6.00 Build 0)  -->
<svg version="1.1" id="Layer_1" xmlns="http://www.w3.org/2000/svg" xmlns:xlink="http://www.w3.org/1999/xlink" x="0px" y="0px"
	 width="230.7px" height="57.9px" viewBox="0 0 230.7 57.9" style="enable-background:new 0 0 230.7 57.9;" xml:space="preserve">
<style type="text/css">
	.st0{fill:url(#SVGID_1_);}
	.st1{fill:#FFFFFF;}
</style>
<g>
	<g>
		<linearGradient id="SVGID_1_" gradientUnits="userSpaceOnUse" x1="0" y1="28.9565" x2="230.6522" y2="28.9565">
			<stop  offset="0" style="stop-color:#812CBD"/>
			<stop  offset="1" style="stop-color:#D672FA"/>
		</linearGradient>
		<path class="st0" d="M201.7,57.9H29c-16,0-29-13-29-29v0C0,13,13,0,29,0l172.7,0c16,0,29,13,29,29v0
			C230.7,44.9,217.7,57.9,201.7,57.9z"/>
		<g>
			<path class="st1" d="M68.3,27.9c0-3.7,2.9-6.5,6.8-6.5s6.8,2.7,6.8,6.5s-2.9,6.5-6.8,6.5S68.3,31.6,68.3,27.9z M79.5,27.9
				c0-2.6-1.9-4.4-4.4-4.4c-2.5,0-4.4,1.9-4.4,4.4s1.9,4.4,4.4,4.4C77.6,32.3,79.5,30.5,79.5,27.9z"/>
			<path class="st1" d="M93.5,28.7v5.5h-2.3V29c0-1.7-0.8-2.5-2.3-2.5c-1.6,0-2.7,1-2.7,2.9v4.9H84v-9.6h2.1v1.2
				c0.7-0.9,1.9-1.4,3.3-1.4C91.8,24.5,93.5,25.8,93.5,28.7z"/>
			<path class="st1" d="M109.6,31.3h-6.3l-1.2,2.9h-2.4l5.7-12.6h2.3l5.7,12.6h-2.4L109.6,31.3z M108.9,29.5l-2.4-5.5l-2.4,5.5
				H108.9z"/>
			<path class="st1" d="M124.9,29.4c0,3-2.1,4.9-4.9,4.9c-1.2,0-2.3-0.4-3.1-1.3v4.7h-2.3V24.6h2.1v1.3c0.8-0.9,1.9-1.4,3.2-1.4
				C122.8,24.5,124.9,26.4,124.9,29.4z M122.6,29.4c0-1.8-1.2-3-2.8-3c-1.6,0-2.9,1.2-2.9,3c0,1.8,1.2,3,2.9,3
				C121.4,32.4,122.6,31.3,122.6,29.4z"/>
			<path class="st1" d="M137.2,29.4c0,3-2.1,4.9-4.9,4.9c-1.2,0-2.3-0.4-3.1-1.3v4.7H127V24.6h2.1v1.3c0.8-0.9,1.9-1.4,3.2-1.4
				C135.1,24.5,137.2,26.4,137.2,29.4z M134.9,29.4c0-1.8-1.2-3-2.8-3c-1.6,0-2.9,1.2-2.9,3c0,1.8,1.2,3,2.9,3
				C133.7,32.4,134.9,31.3,134.9,29.4z"/>
			<path class="st1" d="M139.3,20.9h2.3v13.4h-2.3V20.9z"/>
			<path class="st1" d="M153.4,30.1h-7.5c0.3,1.4,1.4,2.3,3.1,2.3c1.1,0,1.9-0.3,2.6-1l1.2,1.4c-0.9,1-2.2,1.6-3.9,1.6
				c-3.2,0-5.3-2.1-5.3-4.9c0-2.9,2.1-4.9,5-4.9c2.8,0,4.9,2,4.9,5C153.4,29.6,153.4,29.9,153.4,30.1z M145.8,28.6h5.5
				c-0.2-1.4-1.2-2.3-2.7-2.3C147.1,26.3,146.1,27.2,145.8,28.6z"/>
		</g>
		<path class="st1" d="M27.6,47c-1.4-0.5-1.7-1.2-2.3-5.2c-0.7-4.7-0.8-7.6-0.4-8.5c0.5-1.2,1.9-1.9,3.9-1.9c1.9,0,3.4,0.7,3.9,1.9
			c0.4,0.9,0.2,3.8-0.4,8.5c-0.5,3.3-0.7,4.1-1.3,4.6C30,47.2,28.8,47.4,27.6,47L27.6,47z M21.6,42.2c-4.9-2.4-8-6.4-9.1-11.8
			c-0.3-1.4-0.3-4.7-0.1-6c0.7-3.4,2.1-6.1,4.3-8.5c3.2-3.4,7.4-5.2,12.1-5.2c4.6,0,8.8,1.8,11.9,5.1c2.4,2.5,3.8,5.2,4.5,8.6
			c0.2,1.2,0.2,4.3,0,5.6c-0.7,4.1-3,7.9-6.4,10.4c-1.2,0.9-4.1,2.5-4.6,2.5c-0.2,0-0.2-0.2-0.1-0.9c0.1-1.2,0.3-1.4,0.9-1.7
			c1.1-0.4,2.9-1.7,4-2.8c1.9-1.9,3.3-4.4,4-7c0.4-1.6,0.4-5.2-0.1-6.9c-1.4-5.3-5.8-9.4-11.1-10.5c-1.5-0.3-4.3-0.3-5.9,0
			c-5.4,1.1-9.8,5.4-11.2,10.9c-0.4,1.5-0.4,5.1,0,6.6c0.9,3.6,3.2,6.9,6.3,8.9c0.6,0.4,1.3,0.8,1.6,0.9c0.7,0.3,0.8,0.5,0.9,1.7
			c0.1,0.7,0.1,0.9-0.1,0.9C23.3,43,22.5,42.7,21.6,42.2L21.6,42.2z M21.7,35.8c-1.6-1.3-3.1-3.6-3.7-5.9c-0.4-1.4-0.4-4,0-5.4
			c1-3.7,3.7-6.6,7.5-7.9c1.3-0.5,4.2-0.6,5.7-0.2c5.5,1.2,9.4,6.7,8.6,12.2c-0.3,2.2-1.1,4-2.4,5.7c-0.7,0.8-2.3,2.3-2.6,2.3
			c0,0-0.1-0.5-0.1-1.2v-1.2l0.8-1c3.1-3.7,2.9-8.9-0.5-12.3c-1.3-1.3-2.8-2.1-4.8-2.5c-1.3-0.2-1.5-0.2-2.9,0
			c-2,0.3-3.6,1.1-4.9,2.5c-3.4,3.4-3.6,8.5-0.5,12.2l0.8,1v1.2c0,0.7-0.1,1.2-0.1,1.2C22.7,36.5,22.2,36.2,21.7,35.8L21.7,35.8z
			 M27.1,29.4c-1.4-0.7-2.2-1.9-2.2-3.5c0-1.4,0.8-2.7,2.2-3.4c0.9-0.5,2.4-0.5,3.3,0c1,0.5,1.7,1.5,2,2.5
			C33.4,28.1,30.1,30.8,27.1,29.4L27.1,29.4z"/>
	</g>
</g>
</svg>
