<?xml version="1.0" encoding="utf-8"?>
<!-- Generator: Adobe Illustrator 22.0.1, SVG Export Plug-In . SVG Version: 6.00 Build 0)  -->
<svg version="1.1" id="Layer_1" xmlns="http://www.w3.org/2000/svg" xmlns:xlink="http://www.w3.org/1999/xlink" x="0px" y="0px"
	 width="48.7px" height="75.2px" viewBox="0 0 48.7 75.2" style="enable-background:new 0 0 48.7 75.2;" xml:space="preserve">
<style type="text/css">
	.st0{fill:#FFDA30;}
</style>
<image style="overflow:visible;" width="1050" height="700" xlink:href="2691E818.jpg"  transform="matrix(0.9301 0 0 0.9301 200.0008 201.7328)">
</image>
<g>
	<path class="st0" d="M39.5,40.6c2.8-0.1,5-1,6.6-2.8c3.2-3.6,2.6-9.2,2.6-9.4c0-0.3-0.3-0.5-0.6-0.5h-8.3v-1.1
		c1.5,0,2.6-1.2,2.6-2.7c0-1.5-1.2-2.7-2.7-2.7H9c-1.5,0-2.7,1.2-2.7,2.7c0,1.5,1.2,2.7,2.6,2.7v1.1H0.7c-0.3,0-0.6,0.2-0.6,0.5
		c0,0.2-0.6,5.8,2.6,9.4c1.6,1.8,3.8,2.7,6.6,2.8c1,6.3,5.9,11.5,12.2,12.8v16.5h-6.9c-1.5,0-2.7,1.2-2.7,2.7c0,1.5,1.2,2.7,2.7,2.7
		h19.6c1.5,0,2.7-1.2,2.7-2.7c0-1.5-1.2-2.7-2.7-2.7h-6.9V53.4C33.6,52.1,38.5,46.9,39.5,40.6 M47.5,29.1c0.1,1.4,0,5.3-2.3,7.9
		c-1.3,1.5-3.2,2.2-5.5,2.3c0-0.4,0.1-0.8,0.1-1.2v-9.1H47.5z M7.6,24.1c0-0.8,0.7-1.4,1.5-1.4h30.6c0.8,0,1.4,0.6,1.4,1.4
		c0,0.8-0.6,1.5-1.4,1.5h-0.6H9.6H9C8.2,25.6,7.6,24.9,7.6,24.1 M3.5,37c-2.3-2.5-2.4-6.5-2.3-7.9H9v9.1c0,0.4,0,0.8,0.1,1.2
		C6.7,39.2,4.9,38.5,3.5,37 M35.6,72.6c0,0.8-0.6,1.4-1.5,1.4H14.6c-0.8,0-1.4-0.6-1.4-1.4c0-0.8,0.6-1.5,1.4-1.5H22h4.6h7.5
		C34.9,71.1,35.6,71.8,35.6,72.6 M22.6,69.9v-17c0-0.3-0.2-0.6-0.5-0.6c-6.8-1.1-11.9-7.1-11.9-14.1V26.8h28.2v11.4
		c0,6.9-5.1,13-11.9,14.1c-0.3,0-0.5,0.3-0.5,0.6v17H22.6z"/>
	<path class="st0" d="M36.1,32.1c0.3,0,0.6-0.3,0.6-0.6v-3.2c0-0.3-0.3-0.6-0.6-0.6c-0.3,0-0.6,0.3-0.6,0.6v3.2
		C35.4,31.8,35.7,32.1,36.1,32.1"/>
	<path class="st0" d="M28.3,49.9c0.1,0,0.2,0,0.2,0c5-2,8.1-6.7,8.1-12v-3.5c0-0.3-0.3-0.6-0.6-0.6c-0.3,0-0.6,0.3-0.6,0.6v3.5
		c0,4.7-2.9,9-7.4,10.8c-0.3,0.1-0.5,0.5-0.3,0.8C27.8,49.8,28.1,49.9,28.3,49.9"/>
	<path class="st0" d="M19,12.6l-1.2,6.4c0,0.2,0.1,0.5,0.2,0.6c0.1,0.1,0.2,0.1,0.4,0.1c0.1,0,0.2,0,0.3-0.1l5.7-3.1l5.7,3.1
		c0.2,0.1,0.5,0.1,0.7,0c0.2-0.1,0.3-0.4,0.2-0.6l-1.2-6.4l4.7-4.5c0.2-0.2,0.2-0.4,0.2-0.6c-0.1-0.2-0.3-0.4-0.5-0.4l-6.4-0.8
		l-2.7-5.9C24.8,0.1,24.6,0,24.4,0h0c-0.2,0-0.5,0.1-0.6,0.4L21,6.3l-6.4,0.8c-0.2,0-0.4,0.2-0.5,0.4c-0.1,0.2,0,0.5,0.2,0.6
		L19,12.6z M21.5,7.4c0.2,0,0.4-0.2,0.5-0.3l2.4-5l2.3,5c0.1,0.2,0.3,0.3,0.5,0.3l5.5,0.7l-4,3.8c-0.2,0.1-0.2,0.4-0.2,0.6l1,5.5
		l-4.8-2.7c-0.2-0.1-0.4-0.1-0.6,0L19.2,18l1-5.5c0-0.2,0-0.4-0.2-0.6l-4-3.8L21.5,7.4z"/>
</g>
</svg>
