<?xml version="1.0" encoding="utf-8"?>
<!-- Generator: Adobe Illustrator 24.0.0, SVG Export Plug-In . SVG Version: 6.00 Build 0)  -->
<svg version="1.1" id="Layer_1" xmlns="http://www.w3.org/2000/svg" xmlns:xlink="http://www.w3.org/1999/xlink" x="0px" y="0px"
	 width="563.3px" height="180.5px" viewBox="0 0 563.3 180.5" style="enable-background:new 0 0 563.3 180.5;" xml:space="preserve"
	>
<style type="text/css">
	.st0{fill:#FEDA2F;}
	.st1{fill:#FFFFFF;}
</style>
<g>
	<g>
		<path class="st0" d="M205.1,14.7L205.1,14.7c-11.8-11.8-28.9-16.3-45-11.9c0,0-2.4,0.6-6.2,1.6c-15.1,4-52.7,13.9-52.7,13.9
			c-14.6,3.9-39.6,9.3-60.8,17.6c-25,9.7-44.9,23.3-36.9,42.8c3.8,9.2,9.5,18.6,16.6,27.8c0.8,1.1,1.7,2.1,2.5,3.2l34.9-31.5l9.4,8
			L63.3,97l52.7-49L166,97.5l-6.9,12.2l29.2-22.9l17.6,17l1.6-6.2v0l9.6-38.1C221.4,43.5,216.9,26.4,205.1,14.7z"/>
		<path class="st1" d="M188.6,111.9l-7.1-0.5l3.8-13.8l-37.7,24.7l7.8-15.9L139.2,92l-16.8,18.3c-2.6,0.8-10.6,1.6-10.6,1.6l7.1-9.8
			c-4.2,0.5-8.7-1.1-8.7-1.1l12.9-14.2l-3.2-2.9c-4,1.3-9.2-3.2-9.2-3.2l2.4-15L93.1,87.4l-8.4,0.5l-26.4,24.5l3.4-7.9l-8.7-4
			l2.6-6.3l-1.7-3.3l-25.3,25.3c0.1,0.2,0.1,0.5,0.2,0.7c22,24.7,52.1,46.6,76.8,56.3c8.3,3.3,16,5.2,23.1,5.9
			c34.2,3.6,55.8-19.4,68-47.1c1.6-3.7,3.1-7.5,4.4-11.4l-9.1-3.6L188.6,111.9z"/>
	</g>
	<g>
		<g>
			<g>
				<path class="st1" d="M261.2,110.3l0-9.4l-4.6,7.7h-1.6l-4.6-7.5v9.2h-3.4V94.7h3l5.8,9.7l5.8-9.7h3l0,15.6H261.2z"/>
				<path class="st1" d="M278.7,102.5c0-4.6,3.6-8.1,8.5-8.1c4.9,0,8.5,3.4,8.5,8.1c0,4.7-3.6,8.1-8.5,8.1
					C282.3,110.6,278.7,107.1,278.7,102.5z M292.1,102.5c0-3-2.1-5-4.9-5c-2.8,0-4.9,2-4.9,5c0,3,2.1,5,4.9,5
					C290,107.5,292.1,105.5,292.1,102.5z"/>
				<path class="st1" d="M309.7,103.4v-8.8h3.6v8.6c0,3,1.3,4.2,3.5,4.2c2.2,0,3.5-1.2,3.5-4.2v-8.6h3.6v8.8c0,4.6-2.6,7.1-7.1,7.1
					S309.7,108,309.7,103.4z"/>
				<path class="st1" d="M353.2,94.7v15.6h-3l-7.8-9.5v9.5h-3.6V94.7h3l7.8,9.5v-9.5H353.2z"/>
				<path class="st1" d="M371.5,97.6h-5v-2.9h13.6v2.9h-5v12.7h-3.6V97.6z"/>
				<path class="st1" d="M402.9,107h-7.3l-1.4,3.3h-3.7l7-15.6h3.6l7,15.6h-3.8L402.9,107z M401.8,104.2l-2.5-6l-2.5,6H401.8z"/>
				<path class="st1" d="M421.1,94.7h3.6v15.6h-3.6V94.7z"/>
				<path class="st1" d="M454.1,94.7v15.6h-3l-7.8-9.5v9.5h-3.6V94.7h3l7.8,9.5v-9.5H454.1z"/>
				<path class="st1" d="M481.3,107.4v2.9h-12.1V94.7H481v2.9h-8.2v3.4h7.3v2.8h-7.3v3.6H481.3z"/>
				<path class="st1" d="M507.7,107.4v2.9h-12.1V94.7h11.8v2.9h-8.2v3.4h7.3v2.8h-7.3v3.6H507.7z"/>
				<path class="st1" d="M531.9,110.3l-3-4.4h-0.2h-3.1v4.4h-3.6V94.7h6.8c4.2,0,6.8,2.2,6.8,5.7c0,2.3-1.2,4.1-3.2,4.9l3.5,5H531.9
					z M528.5,97.6h-2.9v5.4h2.9c2.2,0,3.3-1,3.3-2.7C531.8,98.6,530.7,97.6,528.5,97.6z"/>
				<path class="st1" d="M548.5,108.8l1.2-2.7c1.3,1,3.3,1.6,5.2,1.6c2.1,0,3-0.7,3-1.7c0-2.9-9.1-0.9-9.1-6.7
					c0-2.7,2.1-4.9,6.6-4.9c2,0,4,0.5,5.4,1.4l-1.1,2.7c-1.5-0.8-2.9-1.2-4.3-1.2c-2.1,0-3,0.8-3,1.8c0,2.9,9.1,0.9,9.1,6.6
					c0,2.6-2.2,4.8-6.6,4.8C552.4,110.6,549.9,109.8,548.5,108.8z"/>
			</g>
			<g>
				<path class="st1" d="M248.1,41.1h19.5c13.7,0,23,7.9,23,20.6s-9.4,20.6-23,20.6h-19.5V41.1z M267.2,73.1c7,0,11.7-4.2,11.7-11.3
					s-4.7-11.3-11.7-11.3h-7.4v22.6H267.2z"/>
				<path class="st1" d="M307.8,41.1h11.7v41.2h-11.7V41.1z"/>
				<path class="st1" d="M366.4,60.9h10.3v17.1c-4.8,3.4-11.3,5.2-17.3,5.2c-13.1,0-22.7-8.9-22.7-21.4s9.6-21.4,23-21.4
					c7.7,0,14,2.6,18,7.5l-7.4,6.7c-2.8-3.1-6.1-4.6-10-4.6c-7.1,0-11.8,4.7-11.8,11.8c0,6.9,4.7,11.8,11.7,11.8
					c2.2,0,4.2-0.4,6.3-1.4V60.9z"/>
				<path class="st1" d="M395.1,41.1h11.7v41.2h-11.7V41.1z"/>
				<path class="st1" d="M434.9,50.4h-12.7v-9.2h36.9v9.2h-12.6v32h-11.7V50.4z"/>
				<path class="st1" d="M500.1,74.4h-17.4l-3.2,8h-11.9l18.2-41.2h11.5l18.3,41.2h-12.1L500.1,74.4z M496.6,65.8l-5.3-13.2
					L486,65.8H496.6z"/>
				<path class="st1" d="M529.7,41.1h11.7v32h19.7v9.2h-31.3V41.1z"/>
			</g>
		</g>
		<g>
			<g>
				<path class="st1" d="M256,134.9c0,2.7-2,4.4-5.2,4.4h-3.1v3.8h-1.8v-12.5h4.9C254,130.5,256,132.2,256,134.9z M254.2,134.9
					c0-1.8-1.2-2.8-3.5-2.8h-3v5.6h3C253,137.7,254.2,136.6,254.2,134.9z"/>
				<path class="st1" d="M257.4,138.3c0-2.8,2.1-4.8,4.9-4.8c2.8,0,4.9,2,4.9,4.8s-2.1,4.8-4.9,4.8
					C259.5,143.1,257.4,141.1,257.4,138.3z M265.5,138.3c0-2-1.4-3.3-3.2-3.3c-1.8,0-3.2,1.3-3.2,3.3s1.4,3.3,3.2,3.3
					C264.2,141.6,265.5,140.3,265.5,138.3z"/>
				<path class="st1" d="M283.7,133.5l-3.5,9.5h-1.6l-2.7-7.2L273,143h-1.6l-3.5-9.5h1.6l2.7,7.5l2.9-7.5h1.4l2.8,7.6l2.8-7.6H283.7
					z"/>
				<path class="st1" d="M293.6,138.8H286c0.2,1.7,1.6,2.8,3.4,2.8c1.1,0,2-0.4,2.7-1.1l0.9,1.1c-0.9,1-2.2,1.5-3.7,1.5
					c-3.1,0-5.1-2-5.1-4.8c0-2.8,2-4.8,4.7-4.8c2.7,0,4.7,2,4.7,4.9C293.7,138.5,293.7,138.7,293.6,138.8z M286,137.6h6.1
					c-0.2-1.6-1.4-2.7-3-2.7C287.4,134.9,286.2,136,286,137.6z"/>
				<path class="st1" d="M301.1,133.5v1.7c-0.1,0-0.3,0-0.4,0c-1.8,0-3,1.1-3,3.2v4.7h-1.7v-9.5h1.6v1.6
					C298.3,134,299.5,133.5,301.1,133.5z"/>
				<path class="st1" d="M311.7,138.8H304c0.2,1.7,1.6,2.8,3.4,2.8c1.1,0,2-0.4,2.7-1.1l0.9,1.1c-0.9,1-2.2,1.5-3.7,1.5
					c-3.1,0-5.1-2-5.1-4.8c0-2.8,2-4.8,4.7-4.8c2.7,0,4.7,2,4.7,4.9C311.7,138.5,311.7,138.7,311.7,138.8z M304,137.6h6.1
					c-0.2-1.6-1.4-2.7-3-2.7C305.4,134.9,304.2,136,304,137.6z"/>
				<path class="st1" d="M323,129.8V143h-1.6v-1.5c-0.8,1.1-2,1.6-3.4,1.6c-2.8,0-4.8-1.9-4.8-4.8s2-4.8,4.8-4.8
					c1.3,0,2.5,0.5,3.3,1.5v-5.2H323z M321.3,138.3c0-2-1.4-3.3-3.2-3.3c-1.8,0-3.2,1.3-3.2,3.3s1.4,3.3,3.2,3.3
					C319.9,141.6,321.3,140.3,321.3,138.3z"/>
				<path class="st1" d="M340.8,138.3c0,2.9-2,4.8-4.8,4.8c-1.4,0-2.6-0.5-3.4-1.6v1.5H331v-13.2h1.7v5.2c0.8-1,2-1.5,3.3-1.5
					C338.8,133.5,340.8,135.4,340.8,138.3z M339.1,138.3c0-2-1.4-3.3-3.2-3.3c-1.8,0-3.2,1.3-3.2,3.3s1.4,3.3,3.2,3.3
					C337.7,141.6,339.1,140.3,339.1,138.3z"/>
				<path class="st1" d="M351.3,133.5l-4.6,10.4c-0.8,2-1.9,2.6-3.4,2.6c-0.9,0-1.8-0.3-2.4-0.9l0.7-1.3c0.5,0.4,1.1,0.7,1.7,0.7
					c0.8,0,1.3-0.4,1.8-1.5l0.3-0.7l-4.2-9.4h1.8l3.3,7.6l3.3-7.6H351.3z"/>
			</g>
			<g>
				<path class="st1" d="M384.3,126.1v17.2h3.3v-17.2H384.3z M399.9,135.4c-0.3-0.7-0.7-1.3-1.2-1.8s-1.1-0.9-1.8-1.2
					c-0.7-0.3-1.4-0.4-2.2-0.4c-0.8,0-1.6,0.2-2.2,0.5c-0.7,0.3-1.3,0.7-1.8,1.2c-0.5,0.5-0.9,1.1-1.2,1.8c-0.3,0.7-0.4,1.4-0.4,2.2
					c0,0.8,0.1,1.6,0.5,2.3c0.3,0.7,0.7,1.3,1.3,1.9c0.5,0.5,1.2,0.9,1.9,1.2c0.7,0.3,1.5,0.4,2.3,0.4c1,0,1.8-0.2,2.6-0.5
					c0.7-0.3,1.3-0.7,1.8-1.1l0.2-0.2l-1.7-2.5l-0.3,0.2c-0.4,0.4-0.8,0.6-1.3,0.8c-0.5,0.1-0.9,0.2-1.3,0.2c-0.4,0-0.7-0.1-1-0.2
					c-0.3-0.1-0.6-0.3-0.8-0.5c-0.2-0.2-0.4-0.4-0.5-0.6c-0.1-0.1-0.1-0.2-0.1-0.3h7.7l0-0.3c0-0.3,0-0.5,0-0.6v-0.4
					C400.3,136.9,400.1,136.1,399.9,135.4z M392.8,136.5c0-0.1,0.1-0.2,0.1-0.3c0.1-0.2,0.2-0.4,0.4-0.6c0.2-0.2,0.4-0.3,0.7-0.4
					c0.3-0.1,0.6-0.2,1-0.2c0.4,0,0.7,0.1,1,0.2c0.3,0.1,0.5,0.3,0.7,0.5c0.2,0.2,0.3,0.4,0.4,0.6c0,0.1,0.1,0.2,0.1,0.3H392.8z
					 M418.9,138.5c-0.2-0.4-0.5-0.7-0.9-1c-0.3-0.2-0.7-0.4-1.2-0.6c-0.4-0.1-0.8-0.3-1.4-0.4h0c-0.9-0.2-1.5-0.4-1.9-0.5
					c-0.4-0.1-0.4-0.3-0.4-0.4c0-0.1,0-0.3,0.4-0.5c0.3-0.2,0.7-0.2,1.2-0.2c0.5,0,1,0.1,1.4,0.3c0.4,0.2,0.8,0.4,1.1,0.6l0.3,0.2
					l1.7-2.5l-0.2-0.2c-0.4-0.3-1-0.6-1.7-0.9c-0.7-0.3-1.6-0.4-2.5-0.4c-0.7,0-1.4,0.1-2,0.3c-0.6,0.2-1.1,0.5-1.5,0.8
					c-0.4,0.4-0.7,0.7-0.9,1.2c-0.2,0.5-0.3,0.9-0.3,1.4c0,0.5,0.1,1,0.4,1.4c0.2,0.4,0.6,0.7,1,1c0.4,0.3,0.8,0.5,1.3,0.7
					c0.4,0.2,0.9,0.3,1.5,0.4c0.2,0,0.4,0.1,0.8,0.2c0.2,0.1,0.5,0.1,0.6,0.2c0.1,0.1,0.2,0.1,0.3,0.2l0,0c0.1,0.1,0.1,0.1,0.1,0.2
					c0,0.2,0,0.4-0.4,0.5c-0.3,0.2-0.7,0.2-1.1,0.2c-0.4,0-0.7-0.1-1-0.1c-0.3-0.1-0.6-0.2-0.8-0.3c-0.3-0.1-0.5-0.3-0.7-0.5
					c-0.2-0.1-0.4-0.3-0.6-0.5l-0.2-0.2l-1.9,2.4l0.2,0.2c0.2,0.2,0.5,0.5,0.9,0.7c0.3,0.2,0.7,0.5,1.1,0.6c0.4,0.2,0.9,0.3,1.4,0.4
					c0.5,0.1,1.1,0.2,1.6,0.2c0.6,0,1.2-0.1,1.8-0.2c0.6-0.2,1.1-0.4,1.5-0.7c0.5-0.3,0.8-0.7,1.1-1.2c0.3-0.5,0.4-1,0.4-1.6
					C419.2,139.4,419.1,138.9,418.9,138.5z M409.7,132.5c-0.7-0.4-1.4-0.6-2.2-0.6c-0.7,0-1.3,0.1-1.8,0.4c-0.2,0.1-0.4,0.3-0.6,0.5
					v-0.6h-3.3v11.1h3.3V138c0-0.7,0-1.7,0.6-2.4c0.4-0.4,0.9-0.5,1.4-0.5c0.2,0,0.6,0,1.2,0.4l0.3,0.2l1.3-3L409.7,132.5z
					 M381.2,133.7L381.2,133.7c-1.1-1.1-2.4-1.7-4-1.7c-1,0-1.9,0.2-2.7,0.7v-0.5h-3.1v16h3.1v-5.7c0.8,0.5,1.8,0.8,2.7,0.8
					c1.5,0,2.8-0.6,3.9-1.7c1.1-1.1,1.6-2.4,1.6-4C382.8,136.1,382.2,134.8,381.2,133.7z M376.9,140.4c-1.5,0-2.7-1.2-2.7-2.7
					c0-1.5,1.2-2.7,2.7-2.7c1.5,0,2.7,1.2,2.7,2.7C379.6,139.2,378.4,140.4,376.9,140.4z M366.6,132.3v5.4c0,1.5-1.3,2.8-2.8,2.8
					c-1.5,0-2.8-1.3-2.8-2.8v-5.4h-3.2v5.4c0,3.3,2.7,6,6,6c3.3,0,6-2.7,6-6v-5.4H366.6z"/>
			</g>
			<g>
				<g>
					<g>
						<path class="st1" d="M422.1,134.2c-0.9,0-1.5-0.7-1.5-1.5c0-0.9,0.7-1.5,1.5-1.5c0.9,0,1.5,0.7,1.5,1.5
							C423.6,133.5,422.9,134.2,422.1,134.2z M422.1,131.4c-0.7,0-1.3,0.6-1.3,1.3s0.6,1.3,1.3,1.3c0.7,0,1.3-0.6,1.3-1.3
							S422.8,131.4,422.1,131.4z"/>
					</g>
				</g>
				<g>
					<g>
						<path class="st1" d="M422.4,133.3l-0.2-0.4h0h-0.3v0.4h-0.3V132h0.6c0.3,0,0.6,0.2,0.6,0.5c0,0.2-0.1,0.3-0.3,0.4l0.3,0.4
							H422.4z M422.1,132.2h-0.2v0.4h0.2c0.2,0,0.3-0.1,0.3-0.2C422.4,132.3,422.3,132.2,422.1,132.2z"/>
					</g>
				</g>
			</g>
		</g>
	</g>
</g>
</svg>
