<?xml version="1.0" encoding="utf-8"?>
<!-- Generator: Adobe Illustrator 24.0.0, SVG Export Plug-In . SVG Version: 6.00 Build 0)  -->
<svg version="1.1" id="Layer_1" xmlns="http://www.w3.org/2000/svg" xmlns:xlink="http://www.w3.org/1999/xlink" x="0px" y="0px"
	 width="230.7px" height="57.9px" viewBox="0 0 230.7 57.9" style="enable-background:new 0 0 230.7 57.9;" xml:space="preserve">
<style type="text/css">
	.st0{fill:#FFFFFF;stroke:#DFDFDF;stroke-miterlimit:10;}
	.st1{fill:#0066D8;}
	.st2{fill:#4284F3;}
	.st3{fill:#E94335;}
	.st4{fill:#34A753;}
	.st5{fill:#F9B808;}
</style>
<g>
	<path class="st0" d="M202.3,57.3H28.9C13.2,57.3,0.5,44.6,0.5,29v0c0-15.7,12.7-28.4,28.4-28.4h173.4c15.7,0,28.4,12.7,28.4,28.4v0
		C230.7,44.6,218,57.3,202.3,57.3z"/>
	<g>
		<path d="M68.3,27.9c0-3.7,2.9-6.5,6.8-6.5s6.8,2.7,6.8,6.5s-2.9,6.5-6.8,6.5S68.3,31.6,68.3,27.9z M79.5,27.9
			c0-2.6-1.9-4.4-4.4-4.4c-2.5,0-4.4,1.9-4.4,4.4s1.9,4.4,4.4,4.4C77.6,32.3,79.5,30.5,79.5,27.9z"/>
		<path d="M93.5,28.7v5.5h-2.3V29c0-1.7-0.8-2.5-2.3-2.5c-1.6,0-2.7,1-2.7,2.9v4.9H84v-9.6h2.1v1.2c0.7-0.9,1.9-1.4,3.3-1.4
			C91.8,24.5,93.5,25.8,93.5,28.7z"/>
		<path d="M110.1,27.8h2.2v5c-1.3,1.1-3.2,1.6-4.9,1.6c-3.9,0-6.8-2.7-6.8-6.5s2.9-6.5,6.8-6.5c2.1,0,3.9,0.7,5.1,2.1l-1.5,1.4
			c-1-1-2.1-1.4-3.5-1.4c-2.7,0-4.6,1.8-4.6,4.4c0,2.6,1.9,4.4,4.6,4.4c0.9,0,1.8-0.2,2.6-0.6V27.8z"/>
		<path d="M114.3,29.4c0-2.9,2.2-4.9,5.1-4.9c3,0,5.1,2,5.1,4.9s-2.1,4.9-5.1,4.9C116.4,34.3,114.3,32.3,114.3,29.4z M122.3,29.4
			c0-1.8-1.2-3-2.9-3c-1.6,0-2.8,1.2-2.8,3c0,1.8,1.2,3,2.8,3C121,32.4,122.3,31.3,122.3,29.4z"/>
		<path d="M125.8,29.4c0-2.9,2.2-4.9,5.1-4.9c3,0,5.1,2,5.1,4.9s-2.1,4.9-5.1,4.9C128,34.3,125.8,32.3,125.8,29.4z M133.8,29.4
			c0-1.8-1.2-3-2.9-3c-1.6,0-2.8,1.2-2.8,3c0,1.8,1.2,3,2.8,3C132.6,32.4,133.8,31.3,133.8,29.4z"/>
		<path d="M147.7,24.6v8.2c0,3.5-1.8,5.1-5.2,5.1c-1.8,0-3.6-0.5-4.7-1.4l1-1.7c0.8,0.7,2.2,1.2,3.5,1.2c2.1,0,3.1-1,3.1-2.9v-0.5
			c-0.8,0.9-1.9,1.3-3.2,1.3c-2.8,0-4.9-1.9-4.9-4.7c0-2.8,2.1-4.6,4.9-4.6c1.4,0,2.5,0.4,3.3,1.4v-1.3H147.7z M145.5,29.1
			c0-1.6-1.2-2.7-2.9-2.7c-1.7,0-2.9,1.1-2.9,2.7c0,1.6,1.2,2.8,2.9,2.8C144.3,31.9,145.5,30.8,145.5,29.1z"/>
		<path d="M150.6,20.9h2.3v13.4h-2.3V20.9z"/>
		<path d="M164.8,30.1h-7.5c0.3,1.4,1.4,2.3,3.1,2.3c1.1,0,1.9-0.3,2.6-1l1.2,1.4c-0.9,1-2.2,1.6-3.9,1.6c-3.2,0-5.3-2.1-5.3-4.9
			c0-2.9,2.1-4.9,5-4.9c2.8,0,4.9,2,4.9,5C164.8,29.6,164.8,29.9,164.8,30.1z M157.2,28.6h5.5c-0.2-1.4-1.2-2.3-2.7-2.3
			C158.5,26.3,157.4,27.2,157.2,28.6z"/>
	</g>
	<g>
		<path class="st1" d="M16.4,27.8v2.2c0,1.1-0.9,2.1-2.1,2.1s-2.1-0.9-2.1-2.1v-2.2c0-1.1,0.9-2.1,2.1-2.1S16.4,26.7,16.4,27.8
			L16.4,27.8z"/>
		<path class="st2" d="M41.1,27.9C41.1,27.9,41.1,27.9,41.1,27.9c0-1.2,0.9-2.1,2.1-2.1c1.1,0,2.1,0.9,2.1,2.1c0,0,0,0,0,0.1h0v2.2
			h0c0,1.1-0.9,2-2.1,2c-1.1,0-2-0.9-2.1-2h0L41.1,27.9L41.1,27.9L41.1,27.9z"/>
		<path class="st3" d="M23.5,34.6v2.2c0,1.1-0.9,2.1-2.1,2.1s-2.1-0.9-2.1-2.1v-2.2c0-1.1,0.9-2.1,2.1-2.1
			C22.6,32.5,23.5,33.4,23.5,34.6L23.5,34.6z M23.5,21.1v7.4h0c0,1.1-0.9,2-2.1,2c-1.1,0-2-0.9-2.1-2h0v-7.4c0-1.1,0.9-2.1,2.1-2.1
			C22.6,19,23.5,19.9,23.5,21.1z"/>
		<path class="st4" d="M34,23.3c0,1.1,0.9,2.1,2.1,2.1c1.1,0,2.1-0.9,2.1-2.1v-2.2c0-1.1-0.9-2.1-2.1-2.1c-1.1,0-2.1,0.9-2.1,2.1
			V23.3z"/>
		<path class="st5" d="M26.7,16.8c0,1.1,0.9,2.1,2.1,2.1c1.1,0,2.1-0.9,2.1-2.1v-2.2c0-1.1-0.9-2.1-2.1-2.1c-1.1,0-2.1,0.9-2.1,2.1
			V16.8z M26.7,41.1c0-1.1,0.9-2.1,2.1-2.1c1.1,0,2.1,0.9,2.1,2.1v2.2c0,1.1-0.9,2.1-2.1,2.1c-1.1,0-2.1-0.9-2.1-2.1V41.1z"/>
		<path class="st4" d="M34,29.5c0-1.1,0.9-2.1,2.1-2.1c1.1,0,2.1,0.9,2.1,2.1v7.3c0,1.1-0.9,2.1-2.1,2.1c-1.1,0-2.1-0.9-2.1-2.1
			V29.5z"/>
		<path class="st5" d="M30.8,23v12c0,1.1-0.9,2.1-2.1,2.1c-1.1,0-2.1-0.9-2.1-2.1V23c0-1.1,0.9-2.1,2.1-2.1
			C29.9,20.9,30.8,21.8,30.8,23z"/>
	</g>
</g>
</svg>
