<?xml version="1.0" encoding="utf-8"?>
<!-- Generator: Adobe Illustrator 22.0.1, SVG Export Plug-In . SVG Version: 6.00 Build 0)  -->
<svg version="1.1" id="Layer_1" xmlns="http://www.w3.org/2000/svg" xmlns:xlink="http://www.w3.org/1999/xlink" x="0px" y="0px"
	 width="211px" height="104.5px" viewBox="0 0 211 104.5" style="enable-background:new 0 0 211 104.5;" xml:space="preserve">
<style type="text/css">
	.st0{fill:#E62A28;}
	.st1{fill:#FCEB2F;}
</style>
<g>
	<g>
		<g>
			<path class="st0" d="M177.5,40.8c0.4,2.4,0.7,4.8,1.1,7.1c2.5,3.1,4.9,6.3,7.1,9.6c-2.1-1.8-4.3-3.4-6.6-5
				c0.1,2.1,0.3,4.3,0.4,6.4c-1.7-3.2-3.4-6.3-5.2-9.4c-2.5-1.4-5-2.7-7.5-3.8c1.2-0.8,2.5-1.6,3.8-2.4c-1.9-3-3.8-5.9-5.7-8.9
				c2.9,2.4,5.8,4.9,8.5,7.6C174.7,41.6,176.1,41.2,177.5,40.8"/>
			<path class="st1" d="M179.5,59.5c-0.2,0-0.4-0.1-0.4-0.3c-1.6-3.1-3.4-6.3-5.2-9.3c-2.4-1.4-4.9-2.6-7.4-3.8
				c-0.2-0.1-0.3-0.2-0.3-0.4s0.1-0.4,0.2-0.5c1.2-0.8,2.3-1.5,3.4-2.1c-1.8-2.9-3.6-5.7-5.5-8.4c-0.1-0.2-0.1-0.5,0.1-0.6
				s0.5-0.2,0.7,0c2.9,2.3,5.6,4.8,8.3,7.4c1.4-0.4,2.7-0.8,4-1.2c0.1,0,0.3,0,0.4,0.1c0.1,0.1,0.2,0.2,0.2,0.3
				c0.4,2.3,0.7,4.7,1.1,7c2.4,3,4.8,6.2,7.1,9.5c0.1,0.2,0.1,0.5-0.1,0.7s-0.5,0.2-0.7,0c-1.8-1.5-3.8-3-5.8-4.4
				c0.1,1.8,0.2,3.6,0.3,5.4C179.9,59.1,179.8,59.3,179.5,59.5C179.6,59.5,179.5,59.5,179.5,59.5z M167.8,45.6
				c2.3,1.1,4.6,2.2,6.8,3.5c0.1,0,0.1,0.1,0.2,0.2c1.4,2.4,2.8,4.9,4.2,7.5c-0.1-1.4-0.2-2.8-0.2-4.2c0-0.2,0.1-0.4,0.3-0.5
				s0.4-0.1,0.5,0c1.4,0.9,2.7,1.9,4,2.9c-1.7-2.3-3.4-4.6-5.2-6.8c-0.1-0.1-0.1-0.2-0.1-0.2c-0.3-2.2-0.7-4.4-1-6.6
				c-1.2,0.3-2.5,0.7-3.7,1.1c-0.2,0.1-0.4,0-0.5-0.1c-1.9-1.8-3.8-3.6-5.8-5.3c1.3,1.9,2.5,3.9,3.8,5.9c0.1,0.1,0.1,0.3,0.1,0.4
				c0,0.1-0.1,0.2-0.2,0.3C169.8,44.4,168.8,45,167.8,45.6z"/>
		</g>
	</g>
</g>
<g>
	<g>
		<g>
			<path class="st0" d="M146.1,15c0.8,2.6,1.6,5.1,2.4,7.7c3.2,2,6.4,4.1,9.4,6.4c-2.7-0.5-5.4-0.9-8.1-1.2c0.5,2.4,1,4.9,1.5,7.3
				c-2.3-2.6-4.7-5.2-7.1-7.7c-2.8-0.1-5.7,0-8.5,0.2c1.1-1.8,2.3-3.6,3.5-5.3c-2.4-2.5-4.9-4.9-7.5-7.2c3.4,1.2,6.8,2.5,10.1,4
				C143.3,17.8,144.7,16.4,146.1,15"/>
			<path class="st1" d="M151.3,35.7c-0.1,0-0.3-0.1-0.4-0.2c-2.4-2.7-4.7-5.2-7-7.6c-2.8-0.1-5.5,0-8.2,0.2c-0.2,0-0.4-0.1-0.5-0.2
				c-0.1-0.2-0.1-0.4,0-0.5c1.1-1.7,2.2-3.4,3.3-5c-2.4-2.4-4.8-4.7-7.2-6.9c-0.2-0.2-0.2-0.4-0.1-0.6c0.1-0.2,0.4-0.3,0.6-0.2
				c3.4,1.2,6.7,2.5,9.9,3.9c1.3-1.3,2.6-2.5,4.1-3.9c0.1-0.1,0.3-0.2,0.5-0.1c0.2,0,0.3,0.2,0.4,0.3c0.8,2.5,1.6,5,2.3,7.5
				c3.2,2,6.3,4.1,9.3,6.3c0.2,0.1,0.3,0.4,0.2,0.6s-0.3,0.3-0.6,0.3c-2.4-0.5-4.9-0.9-7.4-1.2c0.5,2.2,0.9,4.4,1.3,6.7
				c0,0.2-0.1,0.4-0.3,0.5C151.5,35.7,151.4,35.7,151.3,35.7z M142,26.9c0.7,0,1.5,0,2.2,0c0.1,0,0.3,0.1,0.3,0.2
				c2,2,3.9,4.1,5.9,6.4c-0.4-1.8-0.7-3.7-1.1-5.5c0-0.2,0-0.3,0.1-0.4s0.3-0.2,0.4-0.2c2,0.2,4,0.5,6,0.8c-2.5-1.8-5-3.5-7.6-5.1
				c-0.1-0.1-0.2-0.2-0.2-0.3c-0.7-2.3-1.4-4.6-2.2-6.9c-1.3,1.2-2.5,2.4-3.7,3.6c-0.1,0.1-0.4,0.2-0.6,0.1
				c-2.5-1.1-5.1-2.2-7.8-3.2c1.9,1.8,3.8,3.7,5.7,5.6c0.2,0.2,0.2,0.4,0.1,0.6c-1,1.4-2,2.9-2.9,4.5C138.4,27,140.2,26.9,142,26.9z
				"/>
		</g>
	</g>
</g>
<g>
	<g>
		<g>
			<path class="st0" d="M109.3,1.2c1.3,2.7,2.6,5.4,3.8,8.1c3.6,0.6,7.2,1.3,10.8,2.3c-2.9,1-5.8,2.1-8.6,3.3c1,2.8,1.9,5.7,2.7,8.6
				c-2.8-2.1-5.7-4.1-8.6-5.9c-2.9,1.5-5.8,3.2-8.5,5c0.8-2.9,1.7-5.7,2.6-8.6c-2.9-1.7-5.8-3.3-8.8-4.8c3.6-0.4,7.3-0.5,11-0.5
				C106.8,6.2,108.1,3.7,109.3,1.2"/>
			<path class="st1" d="M118.1,23.9c-0.1,0-0.2,0-0.3-0.1c-3.1-2.3-5.8-4.1-8.3-5.7c-2.7,1.4-5.4,3-8.2,4.9c-0.2,0.1-0.4,0.1-0.6,0
				s-0.2-0.3-0.2-0.5c0.8-2.8,1.6-5.5,2.5-8.2c-2.7-1.6-5.6-3.1-8.5-4.6c-0.2-0.1-0.3-0.3-0.3-0.5s0.2-0.4,0.4-0.4
				c3.5-0.3,7.1-0.5,10.7-0.5c1.2-2.4,2.3-4.9,3.5-7.2c0.1-0.2,0.2-0.3,0.5-0.3c0.2,0,0.4,0.1,0.4,0.3c1.3,2.7,2.5,5.3,3.7,7.8
				c3.6,0.6,7.1,1.3,10.6,2.2c0.2,0.1,0.4,0.2,0.4,0.5s-0.1,0.4-0.3,0.5c-2.7,0.9-5.4,1.9-8.1,3.1c0.8,2.5,1.7,5.1,2.6,8.2
				c0.1,0.2,0,0.4-0.2,0.6C118.3,23.9,118.2,23.9,118.1,23.9z M109.5,17c0.1,0,0.2,0,0.3,0.1c2.3,1.4,4.7,3.1,7.4,5
				c-0.8-2.6-1.6-5-2.3-7.2c-0.1-0.2,0-0.5,0.3-0.6c2.3-1,4.7-1.9,7-2.7c-3-0.7-6.1-1.3-9.1-1.8c-0.2,0-0.3-0.1-0.4-0.3
				c-1.1-2.3-2.2-4.7-3.4-7.1c-1.1,2.1-2.1,4.3-3.2,6.6c-0.1,0.2-0.3,0.3-0.5,0.3c-3.1,0-6.1,0.1-9.2,0.4c2.5,1.3,5,2.6,7.3,4
				c0.2,0.1,0.3,0.4,0.2,0.6c-0.8,2.4-1.5,4.8-2.2,7.2c2.6-1.7,5.1-3.1,7.5-4.3C109.3,17,109.4,17,109.5,17z"/>
		</g>
	</g>
</g>
<g>
	<g>
		<g>
			<path class="st0" d="M70.8,7.4c1.8,2.3,3.5,4.6,5.3,7c3.7-1.1,7.4-2.1,11.1-2.9c-2.7,2.5-5.4,5.1-7.9,7.9
				c1.4,2.7,2.8,5.4,4.2,8.1c-3.1-0.9-6.3-1.6-9.4-2.2c-2.6,2.9-5,5.8-7.4,8.9c0.3-3.3,0.6-6.7,1-10c-3.2-0.5-6.3-0.8-9.5-1
				c3.5-2.1,7-4,10.6-5.8C69.3,14,70,10.7,70.8,7.4"/>
			<path class="st1" d="M66.6,34.6c-0.1,0-0.1,0-0.2,0c-0.2-0.1-0.3-0.3-0.3-0.5c0.3-3,0.6-6.2,0.9-9.5c-2.9-0.4-5.8-0.7-9-1
				c-0.2,0-0.4-0.2-0.4-0.4c-0.1-0.2,0-0.4,0.2-0.5c3.4-2.1,6.9-4,10.4-5.7c0.7-3.2,1.4-6.5,2.1-9.7c0-0.2,0.2-0.3,0.4-0.4
				c0.2,0,0.4,0,0.5,0.2c1.7,2.1,3.4,4.4,5.1,6.7c3.5-1.1,7.2-2,10.8-2.8c0.2,0,0.4,0.1,0.5,0.3s0.1,0.4-0.1,0.6
				c-2.8,2.5-5.3,5-7.6,7.6c1.3,2.4,2.6,4.9,4,7.8c0.1,0.2,0.1,0.4-0.1,0.5C83.7,28,83.5,28,83.3,28c-3-0.9-6.1-1.6-9.1-2.2
				c-2.8,3.1-5.1,6-7.2,8.7C66.9,34.5,66.8,34.6,66.6,34.6z M59.6,22.7c2.8,0.2,5.4,0.5,8,0.9c0.3,0,0.5,0.3,0.4,0.5
				c-0.3,2.9-0.6,5.6-0.8,8.3c1.9-2.4,4-4.9,6.4-7.6c0.1-0.1,0.3-0.2,0.5-0.2c2.8,0.5,5.6,1.2,8.4,1.9c-1.3-2.6-2.5-4.9-3.7-7.1
				c-0.1-0.2-0.1-0.4,0.1-0.6c2.1-2.2,4.2-4.4,6.6-6.7c-3.1,0.7-6.3,1.5-9.3,2.5c-0.2,0.1-0.4,0-0.5-0.2c-1.5-2.1-3.1-4.1-4.6-6.1
				c-0.7,2.9-1.3,5.9-1.9,8.8c0,0.2-0.1,0.3-0.3,0.3C65.7,19.3,62.7,20.9,59.6,22.7z"/>
		</g>
	</g>
</g>
<g>
	<g>
		<path class="st0" d="M33.2,32.3c2.4,1.4,4.7,2.9,7,4.6c3.3-2.7,6.8-5.1,10.6-7c-2.3,3.4-4.4,7-6.2,10.7c2,2,3.9,4,5.8,6.1
			c-3.2,0.4-6.5,1.1-9.6,2.1c-1.8,4.2-3.5,8.4-5,12.7c-0.5-3.5-1.1-7.1-1.5-10.6c-3.2,1.1-6.3,2.4-9.4,3.9c2.7-3.9,5.6-7.7,8.7-11.3
			C33.3,39.7,33.2,36,33.2,32.3"/>
		<path class="st1" d="M35.7,61.9C35.7,61.9,35.6,61.9,35.7,61.9c-0.3,0-0.5-0.2-0.5-0.4c-0.5-3.4-1-6.8-1.5-10
			c-2.8,1-5.7,2.2-8.8,3.6c-0.2,0.1-0.4,0-0.6-0.1c-0.1-0.2-0.2-0.4,0-0.6c2.8-4,5.7-7.7,8.6-11.2c-0.1-3.7-0.2-7.4-0.3-10.9
			c0-0.2,0.1-0.3,0.3-0.4s0.4-0.1,0.5,0c2.2,1.3,4.4,2.8,6.7,4.4c3.4-2.7,6.8-5,10.4-6.8c0.2-0.1,0.4-0.1,0.6,0.1
			c0.2,0.2,0.2,0.4,0,0.6c-2.1,3.2-4.2,6.7-6,10.4c1.7,1.8,3.6,3.7,5.5,5.8c0.1,0.1,0.2,0.3,0.1,0.5c-0.1,0.2-0.2,0.3-0.4,0.3
			c-3.1,0.4-6.2,1.1-9.3,2c-1.8,4-3.4,8.2-4.9,12.4C36.1,61.8,35.9,61.9,35.7,61.9z M34.1,50.3c0.1,0,0.2,0,0.3,0.1s0.2,0.2,0.2,0.4
			c0.4,2.8,0.8,5.7,1.2,8.6c1.3-3.7,2.8-7.4,4.3-10.8c0.1-0.1,0.2-0.2,0.3-0.3c2.9-0.8,5.9-1.5,8.8-1.9c-1.8-2-3.5-3.7-5.1-5.3
			c-0.2-0.2-0.2-0.4-0.1-0.6c1.6-3.2,3.3-6.3,5.2-9.1c-3,1.7-5.9,3.7-8.8,6c-0.2,0.1-0.4,0.2-0.6,0c-2.1-1.5-4.1-2.9-6.2-4.1
			c0.1,3.3,0.1,6.7,0.3,10.2c0,0.1,0,0.3-0.1,0.3c-2.6,3-5.1,6.2-7.6,9.7c2.7-1.2,5.3-2.2,7.7-3.1C34,50.3,34.1,50.3,34.1,50.3z"/>
	</g>
</g>
<path d="M30.6,89.3c-0.2-4.5-0.5-9.9-0.4-14.7H30c-1.1,4.3-2.6,9-4.1,13.4l-5.1,15.1h-4.9l-4.6-14.9C9.9,83.8,8.7,79,7.7,74.7H7.6
	C7.5,79.2,7.3,84.8,7,89.5l-0.8,14H0.3l2.3-34.8H11l4.5,14c1.2,4.1,2.3,8.2,3.2,12.1h0.2c0.9-3.8,2.1-8.1,3.5-12.1l4.8-13.9h8.3
	l2,34.8h-6.2L30.6,89.3z"/>
<path d="M59.9,88.9l-2.7-8.6c-0.7-2.1-1.2-4.5-1.8-6.5h-0.1c-0.5,2-1,4.4-1.7,6.5l-2.7,8.6H59.9z M49.9,93.7l-3,9.9h-6.6l11.2-34.8
	h8.1l11.3,34.8h-6.8l-3.2-9.9C60.9,93.7,49.9,93.7,49.9,93.7z"/>
<path d="M84.2,68.7h6.4v22.6c0,9.6-4.7,12.8-11.6,12.8c-1.8,0-4-0.3-5.3-0.8l0.8-5.1c1,0.3,2.4,0.6,3.9,0.6c3.6,0,5.8-1.7,5.8-7.7
	C84.2,91.1,84.2,68.7,84.2,68.7z"/>
<polygon points="114.4,88.1 101.3,88.1 101.3,98.3 116,98.3 116,103.5 94.9,103.5 94.9,68.7 115.2,68.7 115.2,73.9 101.3,73.9 
	101.3,82.9 114.4,82.9 "/>
<path d="M120.3,96.6c2.1,1.2,5.2,2.2,8.4,2.2c4.1,0,6.4-1.9,6.4-4.8c0-2.6-1.8-4.2-6.2-5.8c-5.7-2.1-9.4-5.1-9.4-10.1
	c0-5.7,4.8-10,12.3-10c3.8,0,6.6,0.8,8.4,1.8l-1.5,5.1c-1.2-0.7-3.7-1.7-6.9-1.7c-4,0-5.8,2.2-5.8,4.2c0,2.7,2,3.9,6.7,5.7
	c6,2.3,9,5.3,9,10.3c0,5.6-4.2,10.5-13.2,10.5c-3.7,0-7.5-1.1-9.4-2.2L120.3,96.6z"/>
<polygon points="154.9,74 145,74 145,68.7 171.3,68.7 171.3,74 161.3,74 161.3,103.5 154.9,103.5 "/>
<rect x="174.3" y="68.7" width="6.4" height="34.8"/>
<path d="M210.3,102.5c-1.5,0.8-4.8,1.6-9,1.6c-11.1,0-17.8-7-17.8-17.6c0-11.5,8-18.4,18.6-18.4c4.2,0,7.2,0.9,8.5,1.6l-1.4,5.1
	c-1.7-0.7-3.9-1.3-6.8-1.3c-7.1,0-12.2,4.4-12.2,12.8c0,7.6,4.5,12.6,12.1,12.6c2.6,0,5.3-0.5,6.9-1.3L210.3,102.5z"/>
</svg>
