<?xml version="1.0" encoding="utf-8"?>
<!-- Generator: Adobe Illustrator 24.0.0, SVG Export Plug-In . SVG Version: 6.00 Build 0)  -->
<svg version="1.1" id="Layer_1" xmlns="http://www.w3.org/2000/svg" xmlns:xlink="http://www.w3.org/1999/xlink" x="0px" y="0px"
	 width="44.2px" height="47px" viewBox="0 0 44.2 47" style="enable-background:new 0 0 44.2 47;" xml:space="preserve">
<style type="text/css">
	.st0{fill:#FFDA30;}
</style>
<g>
	<path class="st0" d="M8.5,12.7l2.9-1.6l2.9,1.6l-0.6-3.2L16,7.3l-3.2-0.5l-1.4-3l-1.4,3L6.7,7.3l2.4,2.3L8.5,12.7z M12,8.8l0.1,0.7
		l-0.6-0.3L11,9.5l0.1-0.7l-0.5-0.5l0.5-0.1l0.4-0.7l0.4,0.7l0.7,0.1L12,8.8z"/>
	<rect x="27.2" y="26.2" class="st0" width="12.7" height="1.7"/>
	<rect x="27.2" y="22.7" class="st0" width="2.1" height="1.7"/>
	<rect x="27.2" y="29.6" class="st0" width="6.7" height="1.7"/>
	<path class="st0" d="M30.1,12.7l2.9-1.6l2.9,1.6l-0.6-3.2l2.4-2.3l-3.2-0.5l-1.4-3l-1.4,3l-3.2,0.5l2.4,2.3L30.1,12.7z M33.6,8.8
		l0.1,0.7l-0.6-0.3l-0.6,0.3l0.1-0.7l-0.5-0.5l0.5-0.1l0.4-0.7l0.4,0.7l0.7,0.1L33.6,8.8z"/>
	<path class="st0" d="M19.3,8.9l2.9-1.6l2.9,1.6l-0.6-3.2l2.4-2.3L23.6,3l-1.4-3l-1.4,3l-3.2,0.5l2.4,2.3L19.3,8.9z M22.2,3.8
		l0.4,0.7l0.7,0.1L22.8,5l0.1,0.7l-0.7-0.3l-0.6,0.3l0.1-0.7l-0.5-0.5l0.6-0.1L22.2,3.8z"/>
	<path class="st0" d="M39.9,18H26.5c-2.3,0-4.1,1.9-4.1,4.1v2.4l-5.6,7.2h5.6V32c0,2.3,1.9,4.1,4.1,4.1h13.4c2.3,0,4.1-1.9,4.1-4.1
		v-9.8C44.1,19.8,42.3,18,39.9,18z M20.2,30.1l3.8-4.8v-3c0-1.3,1.2-2.5,2.5-2.5h13.4c1.3,0,2.5,1.2,2.5,2.5V32
		c0,1.3-1.2,2.5-2.5,2.5H26.5c-1.3,0-2.5-1.2-2.5-2.5v-1.9H20.2z"/>
	<path class="st0" d="M15.8,18.7H0.1v16.8h15.7V18.7z M7.9,25.3c0.9,0,1.7,0.7,1.7,1.7c0,0.4-0.1,0.8-0.4,1.1
		c-0.3,0.4-0.8,0.6-1.3,0.6c-0.9,0-1.7-0.7-1.7-1.7C6.2,26,7,25.3,7.9,25.3z M7.8,30.6c1.5,0,3.2,1,3.3,3.2H4.5
		C4.6,31.6,6.3,30.6,7.8,30.6z M11.2,25.9c-0.4-1.5-1.7-2.4-3.2-2.4c-1.5,0-2.8,0.9-3.2,2.4c-0.4,1.3,0,2.7,0.9,3.6
		C4,30.3,3,31.9,2.9,34H1.8V20.3h12.3v13.5h-1.3c-0.1-1.9-1.1-3.5-2.6-4.3C11.2,28.7,11.6,27.3,11.2,25.9z"/>
	<rect x="9.5" y="40.8" class="st0" width="24.6" height="1.7"/>
	<rect x="36.9" y="22.7" class="st0" width="2.1" height="1.7"/>
	<rect x="30.5" y="22.7" class="st0" width="2.1" height="1.7"/>
	<rect x="25.6" y="45.3" class="st0" width="2.1" height="1.7"/>
	<rect x="33.7" y="22.7" class="st0" width="2.1" height="1.7"/>
	<rect x="22.4" y="45.3" class="st0" width="2.1" height="1.7"/>
	<rect x="15.8" y="45.3" class="st0" width="2.1" height="1.7"/>
	<rect x="19.1" y="45.3" class="st0" width="2.1" height="1.7"/>
</g>
</svg>
