<?xml version="1.0" encoding="utf-8"?>
<!-- Generator: Adobe Illustrator 15.0.0, SVG Export Plug-In . SVG Version: 6.00 Build 0)  -->
<!DOCTYPE svg PUBLIC "-//W3C//DTD SVG 1.1//EN" "http://www.w3.org/Graphics/SVG/1.1/DTD/svg11.dtd">
<svg version="1.1" id="Layer_1" xmlns="http://www.w3.org/2000/svg" xmlns:xlink="http://www.w3.org/1999/xlink" x="0px" y="0px"
	 width="1220.16px" height="388.314px" viewBox="0 0 1220.16 388.314" enable-background="new 0 0 1220.16 388.314"
	 xml:space="preserve">
<g>
	<defs>
		<rect id="SVGID_1_" width="1220.16" height="388.314"/>
	</defs>
	<clipPath id="SVGID_2_">
		<use xlink:href="#SVGID_1_"  overflow="visible"/>
	</clipPath>
	<path clip-path="url(#SVGID_2_)" fill="#B64517" d="M659.146,183.36c33.206-17.497,70.122-18.049,99.198-38.478
		c1.445-1.016,1.933-3.385,2.905-5.199c-4.29-9.426-12.311-9.946-20.679-9.589c-17.653,0.751-33.688,7.532-49.896,13.556
		c-30.547,11.355-59.329,27.056-90.405,37.06c-46.441,14.951-93.668,22.904-142.442,13.265c-10.981-2.17-21.504-5.788-32.522-13.023
		c50.571,9.207,95.531-1.005,139.188-24.088c-8.635-12.591-19.252-15.482-32.192-10.655c-15.008,5.597-30.333,9.518-46.304,11.502
		c-34.091,4.235-66.043-2.523-94.699-20.536c-38.45-24.17-80.115-27.432-123.632-23.678c-26.006,2.244-52.053,6.43-78.179,0.982
		c-1.236-0.258-2.419-0.767-4.295-1.378c51.907-16.882,174.864-57.546,240.161-37.21c-6.591-6.955-13.527-14.274-22.056-23.275
		c18.572,3.05,33.632,8.78,48.515,15.168c33.64,14.437,66.189,31.487,102.156,40.248c53.364,12.997,107.308,16.468,161.897,11.532
		c5.766-0.521,11.48-1.724,16.363-5.081c6.176-4.244,8.782-10.252,7.52-17.62c-1.266-7.378-7.281-9.636-13.436-10.46
		c-15.253-2.043-30.549-1.066-45.765,0.822c-35.728,4.434-71.339,9.647-107.534,9.34c-28.292-0.24-53.931-7.841-75.627-25.742
		c-40.363-33.305-86.756-51.089-139.46-56.092c4.198-3.165,8.42-2.702,12.354-3.241c4.37-0.599,8.73-1.343,13.122-1.688
		c35.781-2.807,69.495,5.461,102.103,19.287c25.622,10.863,50.923,22.515,76.777,32.793c34.453,13.695,70.089,18.67,106.889,10.928
		c1.657-0.348,3.352-0.603,4.942-1.152c0.895-0.309,1.611-1.129,4.683-3.402C636.894,51.577,594.3,42.739,552.956,29.435
		c29.596-2.437,59.087-1.759,91.059,3.89c-7.341-8.983-16.417-9.971-23.677-16.532c39.588-6.726,76.57-4.776,110.618,16.304
		c11.232,6.955,21.614,15.282,32.353,23.024c4.699,3.389,9.389,7.076,15.158,8.087c6.583,1.153,13.016,0.617,16.553-7.037
		c-0.85-10.559-7.439-15.569-17.284-18.111c-14.425-3.724-28.865-7.665-40.974-20.963c7.175,0.753,12.55,1.394,17.94,1.87
		c30.58,2.697,60.097-5.196,89.993-9.158c24.564-3.256,48.937-8.569,73.587-10.436c76.214-5.773,116.915,56.594,120.251,103.969
		c4.291,60.96-50.852,111.728-102.098,113.272c-16.135,0.487-31.832-2.492-46.916-8.062
		c-48.953-18.072-99.381-27.237-151.677-26.274C712.494,183.746,687.13,183.36,659.146,183.36 M932.174,199.031
		c49.834,0.036,90.143-40.042,90.14-89.625c-0.003-49.217-41.22-90.367-90.171-90.024c-48.773,0.341-89.447,40.875-89.851,89.541
		C841.884,158.015,882.761,198.997,932.174,199.031"/>
	<path clip-path="url(#SVGID_2_)" fill="#B64517" d="M353.785,259.109c4.728-2.354,8.529-1.746,12.215-1.748
		c65.629-0.038,131.258-0.059,196.886-0.007c20.937,0.018,27.808,7.692,21.51,27.833c-10.683,34.167-23.146,67.781-35.002,102.036
		c-11.226,1.316-21.831,1.268-33.467,0.025c9.982-33.268,23.33-64.239,31.766-95.231c-4.005-5.562-7.97-4.839-11.619-4.857
		c-13.261-0.07-26.542,0.407-39.779-0.161c-10.994-0.474-16.888,4.387-20.23,14.473c-8.402,25.356-17.273,50.557-25.974,75.813
		c-1.09,3.166-2.285,6.295-3.651,10.045c-10.877,1.269-21.586,0.946-32.472,0.258c-0.909-5.882,1.999-10.28,3.586-14.923
		c7.871-23.039,15.942-46.011,23.832-69.044c1.71-4.994,4.444-10.183-1.197-16.185c-17.41,0-35.696-0.347-53.958,0.177
		c-7.036,0.201-9.956,6.322-12.047,12.28c-8.847,25.212-17.643,50.443-26.491,75.655c-1.335,3.805-2.85,7.549-4.451,11.769
		c-10.976,1.194-21.667,1.153-33.907-0.084C324.5,343.518,339.292,300.88,353.785,259.109"/>
	<path clip-path="url(#SVGID_2_)" fill="#B64517" d="M304.956,337.703H202.931c-4.217,4.766-5.115,9.698-6.05,14.235
		c2.044,7.209,7.647,6.16,12.642,6.166c28.851,0.041,57.702,0.02,87.988,0.02c-2.236,10.768-6.185,19.799-9.795,28.563
		c-4.454,2.006-8.592,1.382-12.622,1.371c-32.291-0.096-64.595,0.236-96.867-0.622c-19.181-0.509-25.258-9.383-19.44-27.319
		c9.283-28.613,19.194-57.029,29.177-85.411c3.854-10.958,11.988-17.123,23.919-17.17c31.612-0.125,63.228-0.269,94.839,0.021
		c11.782,0.106,16.546,5.283,16.899,16.953c0.133,4.365,0.234,9.035-1.102,13.091C317.136,303.942,311.184,320.101,304.956,337.703
		 M212.91,307.832h68.021c2.479-6.329,6.318-11.481,3.613-17.521c-3.545-3.921-7.818-3.121-11.795-3.147
		c-12.883-0.086-25.768-0.088-38.651-0.017C219.628,287.228,214.643,291.958,212.91,307.832"/>
	<path clip-path="url(#SVGID_2_)" fill="#B64517" d="M0,386.107c2.864-8.711,5.787-17.602,8.507-25.875
		c3.976-3.043,7.856-2.051,11.494-2.063c25.503-0.093,51.008,0.101,76.509-0.143c13.094-0.125,18.029-5.682,16.96-18.06
		c-3.598-3.983-8.51-3.396-13.21-3.408c-18.362-0.045-36.726,0.122-55.086-0.085c-18.653-0.21-26.127-10.267-20.564-27.547
		c3.836-11.915,8.046-23.71,12.044-35.572c2.884-8.557,9.134-14.434,17.671-14.948c39.999-2.416,80.037-0.513,120.811-1.154
		c-2.18,11.036-6.041,19.957-10.154,29.879h-59.003c-9.862,0.001-19.728-0.193-29.583,0.056c-10.725,0.273-15.16,6.273-13.265,17.4
		c2.933,3.266,6.909,2.21,10.516,2.229c19.042,0.102,38.086-0.097,57.127,0.099c18.138,0.184,26.351,10.894,20.893,28.135
		c-4.177,13.2-9.334,26.129-14.731,38.895c-3.426,8.099-10.661,12.757-19.231,13.171c-38.379,1.853-76.79,1.157-115.191,0.423
		C1.934,387.526,1.365,386.907,0,386.107"/>
	<path clip-path="url(#SVGID_2_)" fill="#B64517" d="M999.265,340.549c-4.181-4.489-9.082-3.982-13.808-3.992
		c-18.368-0.037-36.738,0.133-55.104-0.085c-18.569-0.222-25.826-10.187-20.266-27.841c3.655-11.608,8.021-22.997,11.723-34.594
		c3.18-9.958,10.244-15.811,20.114-15.955c38.756-0.56,77.523-0.339,116.286-0.356c0.552,0,1.104,0.646,2.504,1.523
		c-3.219,8.902-6.503,17.987-10.08,27.882h-59.514c-9.523,0.001-19.05-0.124-28.571,0.036c-11.531,0.195-15.979,5.91-13.975,17.752
		c3.762,3.229,8.39,1.843,12.655,1.878c18.026,0.155,36.055-0.032,54.083,0.099c18.557,0.134,27.141,10.996,21.646,28.653
		c-4.109,13.209-9.49,26.066-14.966,38.8c-3.318,7.717-10.32,12.26-18.477,12.683c-38.385,1.998-76.806,1.261-115.216,0.458
		c-0.598-0.011-1.182-0.607-2.336-1.239c1.185-9.566,5.633-18.209,8.836-28.126c20.543,0,40.554,0.01,60.564-0.005
		c9.523-0.008,19.063,0.27,28.566-0.186C994.662,357.419,999.205,352.045,999.265,340.549"/>
	<path clip-path="url(#SVGID_2_)" fill="#B64517" d="M1140.335,387.445c6.247-18.32,11.881-34.846,17.909-52.524h-68.042
		c-7.773,16.171-11.628,34.49-19.098,52.31c-10.484,1.775-21.222,0.458-31.96,0.813c0.189-8.469,38.107-118.549,44.659-130.111
		h33.114c-5.256,15.823-10.216,30.755-15.505,46.677h68.164c5.607-15.499,11.211-30.983,16.909-46.733
		c10.989-0.76,21.394-0.922,33.673,0.164c-15.266,43.354-30.142,85.602-45.333,128.744
		C1163.854,389.141,1152.925,388.081,1140.335,387.445"/>
	<path clip-path="url(#SVGID_2_)" fill="#B64517" d="M771.791,258.039c11.318-1.163,21.716-0.875,33.669-0.132
		c-4.713,13.828-8.998,26.525-13.366,39.193c-5.294,15.353-10.613,30.698-16.02,46.011c-1.481,4.199-3.13,8.281-0.887,12.011
		c3.132,3.456,6.676,2.966,10.025,2.978c13.948,0.046,27.904-0.258,41.842,0.12c8.777,0.238,13.667-3.166,16.522-11.634
		c8.867-26.287,18.351-52.368,27.607-78.525c1.117-3.157,2.314-6.286,3.688-10.007c10.892-1.232,21.604-0.787,32.877-0.365
		c-1.549,10.266-5.612,18.857-8.657,27.734c-9.984,29.12-20.365,58.107-30.034,87.331c-3.402,10.279-10.04,15.097-20.269,15.146
		c-32.656,0.157-65.321,0.392-97.969-0.168c-15.285-0.261-20.792-9.188-15.509-25.489c8.447-26.061,17.913-51.797,26.984-77.657
		C765.41,275.708,768.63,266.868,771.791,258.039"/>
	<path clip-path="url(#SVGID_2_)" fill="#B64517" d="M604.15,387.392c-10.963,0.991-21.605,1.252-33.779-0.34
		c6.365-18.371,12.303-35.531,18.258-52.688c6.323-18.219,12.583-36.459,19.016-54.64c5.733-16.205,13.237-22.086,30.013-22.221
		c36.399-0.292,72.802-0.136,109.203-0.127c1.652,0,3.304,0.363,5.481,0.618c-1.5,10.154-5.578,18.961-8.927,29.136h-28.663
		c-20.071,0.003-40.148,0.289-60.213-0.107c-10.478-0.207-16.224,4.313-19.521,14.031c-8.476,24.988-17.467,49.804-26.297,74.673
		C607.376,379.516,605.792,383.221,604.15,387.392"/>
	<path clip-path="url(#SVGID_2_)" fill="#B64517" d="M1001.338,109.381c0.033,38.912-29.97,68.942-68.892,68.959
		c-38.659,0.016-69.301-30.449-69.294-68.894c0.008-38.261,30.915-69.131,69.233-69.147
		C971.027,40.282,1001.307,70.618,1001.338,109.381 M930.352,62.493c19.039,5.629,34.205,16.088,41.95,34.984
		c7.794,19.019,4.816,37.31-5.995,56.442c17.22-11.098,25.605-36.163,20.708-57.219c-5.439-23.385-25.09-41.689-48.325-44.822
		C935.157,54.24,932.059,57.132,930.352,62.493"/>
</g>
</svg>
