<?xml version="1.0" encoding="utf-8"?>
<!-- Generator: Adobe Illustrator 15.0.0, SVG Export Plug-In . SVG Version: 6.00 Build 0)  -->
<!DOCTYPE svg PUBLIC "-//W3C//DTD SVG 1.1//EN" "http://www.w3.org/Graphics/SVG/1.1/DTD/svg11.dtd">
<svg version="1.1" id="Layer_1" xmlns="http://www.w3.org/2000/svg" xmlns:xlink="http://www.w3.org/1999/xlink" x="0px" y="0px"
	 width="2195.91px" height="2430.88px" viewBox="0 0 2195.91 2430.88" enable-background="new 0 0 2195.91 2430.88"
	 xml:space="preserve">
<g>
	<defs>
		<rect id="SVGID_1_" y="0.002" width="2195.909" height="2430.878"/>
	</defs>
	<clipPath id="SVGID_2_">
		<use xlink:href="#SVGID_1_"  overflow="visible"/>
	</clipPath>
	<path clip-path="url(#SVGID_2_)" fill="#F9AB00" d="M2195.9,2126.68c0.898,166.899-133.7,302.8-300.5,303.7
		c-12.4,0.1-24.9-0.6-37.2-2.1c-154.8-22.9-268.2-157.602-264.401-314V316.08c-3.699-156.6,110-291.3,264.901-314
		c165.7-19.4,315.8,99.2,335.2,264.9c1.398,12.2,2.1,24.4,2,36.7V2126.68z"/>
	<path clip-path="url(#SVGID_2_)" fill="#E37400" d="M301.1,1828.68c166.3,0,301.1,134.8,301.1,301.101
		c0,166.299-134.8,301.1-301.1,301.1c-166.3,0-301.1-134.801-301.1-301.1C0,1963.479,134.8,1828.68,301.1,1828.68 M1093.3,916.18
		c-167.1,9.2-296.7,149.3-292.8,316.601v808.699c0,219.5,96.6,352.7,238.1,381.1c163.301,33.101,322.4-72.399,355.5-235.699
		c4.1-20,6.1-40.301,6-60.7V1218.78c0.301-166.9-134.699-302.4-301.6-302.7C1096.8,916.08,1095,916.08,1093.3,916.18"/>
</g>
</svg>
