<?xml version="1.0" encoding="utf-8"?>
<!-- Generator: Adobe Illustrator 22.0.1, SVG Export Plug-In . SVG Version: 6.00 Build 0)  -->
<svg version="1.1" id="Layer_1" xmlns="http://www.w3.org/2000/svg" xmlns:xlink="http://www.w3.org/1999/xlink" x="0px" y="0px"
	 width="91.2px" height="62px" viewBox="0 0 91.2 62" style="enable-background:new 0 0 91.2 62;" xml:space="preserve">
<style type="text/css">
	.st0{fill:#FFDA30;}
</style>
<image style="overflow:visible;" width="1050" height="700" xlink:href="984C0F79.jpg"  transform="matrix(0.9301 0 0 0.9301 122.0117 194.6508)">
</image>
<g>
	<path class="st0" d="M54.5,46.8c1.1-1.7,1.8-3.8,1.8-6c0-5.9-4.8-10.8-10.7-10.8c-5.9,0-10.7,4.8-10.7,10.8c0,2.2,0.7,4.3,1.8,6
		c-5.5,2.9-9.3,8.1-10.3,14.3c0,0.2,0,0.4,0.2,0.6c0.1,0.2,0.3,0.3,0.6,0.3h36.9c0.2,0,0.4-0.1,0.6-0.3c0.1-0.2,0.2-0.4,0.2-0.6
		C63.8,55,60,49.7,54.5,46.8 M45.6,31.5c5.1,0,9.2,4.2,9.2,9.3c0,3.2-1.6,6-4,7.7c0,0-0.1,0-0.1,0.1c-0.4,0.3-0.9,0.6-1.4,0.8
		c-0.1,0-0.1,0.1-0.2,0.1c-0.5,0.2-1,0.4-1.5,0.5c-0.1,0-0.2,0-0.2,0c-0.5,0.1-1.1,0.2-1.6,0.2c0,0,0,0,0,0c-0.6,0-1.2-0.1-1.8-0.2
		c0,0-0.1,0-0.1,0c-0.6-0.1-1.1-0.3-1.7-0.5l0,0c-3.3-1.4-5.6-4.7-5.6-8.6C36.4,35.7,40.5,31.5,45.6,31.5 M28.1,60.5
		c1.1-5.4,4.6-10,9.6-12.5c1.8,2,4.2,3.3,6.9,3.6c0.1,0,0.2,0,0.3,0c0.2,0,0.5,0,0.7,0c0,0,0,0,0,0s0,0,0,0c0.8,0,1.5-0.1,2.2-0.2
		c0.1,0,0.2-0.1,0.3-0.1c0.2-0.1,0.5-0.1,0.7-0.2c0.2-0.1,0.4-0.1,0.5-0.2c0.1-0.1,0.3-0.1,0.4-0.2c0.2-0.1,0.4-0.2,0.7-0.3
		c0.1,0,0.2-0.1,0.3-0.1c0.2-0.1,0.5-0.3,0.7-0.4c0.1,0,0.1-0.1,0.2-0.1c0.2-0.2,0.5-0.3,0.7-0.5c0.1,0,0.1-0.1,0.2-0.1
		c0.2-0.2,0.4-0.4,0.6-0.6c0.1-0.1,0.1-0.1,0.2-0.2c0.1-0.1,0.2-0.2,0.3-0.4c4.9,2.5,8.4,7.1,9.6,12.5H28.1z"/>
	<path class="st0" d="M23.3,40.1c0.1-0.2,0.2-0.4,0.2-0.6c-0.6-3.7-2.8-6.8-6-8.6c0.6-1,1-2.2,1-3.5c0-3.7-3-6.7-6.7-6.7
		c-3.7,0-6.7,3-6.7,6.7c0,1.3,0.4,2.4,1,3.5c-3.2,1.8-5.5,4.9-6,8.6c0,0.2,0,0.4,0.2,0.6c0.1,0.2,0.3,0.3,0.6,0.3h22
		C23,40.3,23.2,40.3,23.3,40.1 M11.8,22.2c2.8,0,5.2,2.4,5.2,5.3c0,1.3-0.5,2.4-1.2,3.4c-0.2,0.2-0.4,0.4-0.6,0.6
		c-0.1,0.1-0.1,0.1-0.2,0.2c-0.2,0.2-0.5,0.3-0.7,0.5c-0.1,0-0.1,0.1-0.2,0.1c-0.3,0.1-0.6,0.2-0.9,0.3c-0.1,0-0.1,0-0.2,0.1
		c-0.4,0.1-0.7,0.1-1.1,0.1c-0.4,0-0.7,0-1.1-0.1c-0.1,0-0.3-0.1-0.4-0.1c-0.2-0.1-0.4-0.1-0.6-0.2C9.5,32.1,9.3,32,9.2,32
		c-0.2-0.1-0.3-0.2-0.5-0.3c-0.1-0.1-0.2-0.2-0.4-0.3C8.2,31.2,8,31,7.8,30.8c-0.8-0.9-1.3-2.1-1.3-3.4C6.6,24.5,8.9,22.2,11.8,22.2
		 M1.7,38.9c0.7-2.9,2.6-5.4,5.3-6.8c0,0,0,0,0,0c0.2,0.2,0.3,0.3,0.5,0.5C7.7,32.7,7.8,32.9,8,33c0.1,0,0.1,0.1,0.2,0.1
		c1,0.7,2.3,1,3.5,1c1.9,0,3.6-0.8,4.8-2.1c0,0,0,0,0,0c2.7,1.4,4.6,3.9,5.3,6.8H1.7z"/>
	<path class="st0" d="M85.2,30.9c0.6-1,1-2.2,1-3.5c0-3.7-3-6.7-6.7-6.7c-3.7,0-6.7,3-6.7,6.7c0,1.3,0.4,2.4,1,3.5
		c-3.2,1.8-5.5,4.9-6,8.6c0,0.2,0,0.4,0.2,0.6c0.1,0.2,0.3,0.3,0.6,0.3h22c0.2,0,0.4-0.1,0.6-0.3c0.1-0.2,0.2-0.4,0.2-0.6
		C90.6,35.8,88.4,32.7,85.2,30.9 M79.5,22.2c2.9,0,5.2,2.4,5.2,5.3c0,1.3-0.5,2.5-1.3,3.4c-0.2,0.2-0.3,0.4-0.5,0.5
		c-0.1,0.1-0.2,0.2-0.4,0.3c-0.2,0.1-0.3,0.2-0.5,0.3c-0.1,0.1-0.3,0.2-0.4,0.2c-0.2,0.1-0.4,0.1-0.6,0.2c-0.1,0-0.3,0.1-0.4,0.1
		c-0.4,0.1-0.7,0.1-1.1,0.1c-0.4,0-0.8,0-1.1-0.1c-0.1,0-0.1,0-0.2-0.1c-0.3-0.1-0.6-0.2-0.9-0.3c-0.1,0-0.1-0.1-0.2-0.1
		c-0.3-0.1-0.5-0.3-0.7-0.5c-0.1-0.1-0.1-0.1-0.2-0.2c-0.2-0.2-0.4-0.4-0.6-0.6c-0.8-0.9-1.2-2.1-1.2-3.4
		C74.3,24.5,76.6,22.2,79.5,22.2 M69.4,38.9c0.7-2.9,2.6-5.4,5.3-6.8c0,0,0,0,0,0c1.2,1.3,2.9,2.1,4.8,2.1c1.3,0,2.5-0.4,3.5-1
		c0.1,0,0.1-0.1,0.2-0.1c0.2-0.1,0.3-0.3,0.5-0.4c0.2-0.1,0.4-0.3,0.5-0.5c0,0,0,0,0.1,0c2.7,1.4,4.6,3.9,5.3,6.8H69.4z"/>
	<path class="st0" d="M79.5,42c-0.4,0-0.7,0.3-0.7,0.7v8.9c0,1.8-1.5,3.3-3.2,3.3H64.6c-0.4,0-0.7,0.3-0.7,0.7
		c0,0.4,0.3,0.7,0.7,0.7h10.9c2.6,0,4.7-2.1,4.7-4.7v-8.9C80.2,42.4,79.9,42,79.5,42"/>
	<path class="st0" d="M27.3,55.7c0-0.4-0.3-0.7-0.7-0.7H15.7c-1.7,0-3.2-1.5-3.2-3.3v-8.9c0-0.4-0.3-0.7-0.7-0.7S11,42.4,11,42.8
		v8.9c0,2.6,2.1,4.7,4.7,4.7h10.9C27,56.4,27.3,56.1,27.3,55.7"/>
	<path class="st0" d="M38,17.5l-1.4,8.9c0,0.3,0.1,0.6,0.3,0.7c0.2,0.2,0.5,0.2,0.8,0.1l8-4.1l8,4.1c0.1,0.1,0.2,0.1,0.3,0.1
		c0.2,0,0.3,0,0.4-0.1c0.2-0.2,0.3-0.4,0.3-0.7l-1.4-8.9l6.3-6.4c0.2-0.2,0.3-0.5,0.2-0.8c-0.1-0.3-0.3-0.5-0.6-0.5l-8.8-1.4l-4.1-8
		C46.2,0.2,45.9,0,45.6,0h0c-0.3,0-0.5,0.2-0.7,0.4l-4.1,8l-8.8,1.4c-0.3,0-0.5,0.2-0.6,0.5c-0.1,0.3,0,0.6,0.2,0.8L38,17.5z
		 M41.5,9.9c0.2,0,0.4-0.2,0.5-0.4l3.6-7.1l3.6,7.1c0.1,0.2,0.3,0.4,0.5,0.4l7.8,1.3l-5.6,5.6c-0.2,0.2-0.2,0.4-0.2,0.6l1.2,7.8
		l-7-3.6c-0.2-0.1-0.5-0.1-0.7,0l-7,3.6l1.2-7.8c0-0.2,0-0.5-0.2-0.6l-5.6-5.6L41.5,9.9z"/>
</g>
</svg>
