<?xml version="1.0" encoding="utf-8"?>
<!-- Generator: Adobe Illustrator 24.0.0, SVG Export Plug-In . SVG Version: 6.00 Build 0)  -->
<svg version="1.1" id="Layer_1" xmlns="http://www.w3.org/2000/svg" xmlns:xlink="http://www.w3.org/1999/xlink" x="0px" y="0px"
	 width="66.5px" height="47px" viewBox="0 0 66.5 47" style="enable-background:new 0 0 66.5 47;" xml:space="preserve">
<style type="text/css">
	.st0{fill:none;stroke:#FFDA30;stroke-width:1.5;stroke-linecap:round;stroke-linejoin:round;stroke-miterlimit:10;}
	.st1{fill:#FFDA30;}
	.st2{fill:none;stroke:#000000;stroke-width:1.5;stroke-miterlimit:10;}
</style>
<g>
	<path class="st0" d="M34.1,12.5c0,4.7-3.8,8.5-8.5,8.5s-8.5-3.8-8.5-8.5c0-1.4,0.4-2.8,1-4C19.6,5.8,22.4,4,25.6,4
		c3.6,0,6.7,2.2,7.9,5.4C33.9,10.4,34.1,11.4,34.1,12.5z"/>
	<path class="st0" d="M20.6,19.2c-6.9,1.6-7.7,7.5-7.7,7.5v2.8v14.5c0,1.1,0.9,1.9,1.9,1.9h21.5c1.1,0,1.9-0.9,1.9-1.9V29.6v-2.8
		c0,0-0.9-5.9-7.7-7.5"/>
	<line class="st0" x1="12.8" y1="29.6" x2="38.1" y2="29.6"/>
	<line class="st0" x1="12.8" y1="42.4" x2="38.1" y2="42.4"/>
	<circle class="st1" cx="25.5" cy="35.9" r="2.3"/>
	<line class="st0" x1="38.1" y1="37.3" x2="65.3" y2="37.3"/>
	<line class="st0" x1="1.2" y1="37.3" x2="12.8" y2="37.3"/>
	<path class="st0" d="M50.7,19h10.1c1.9,0,3.5-1.6,3.5-3.5v-11c0-1.9-1.6-3.5-3.5-3.5H43.6c-1.9,0-3.5,1.6-3.5,3.5v11
		c0,1.9,1.6,3.5,3.5,3.5h2.3v4.7L50.7,19z"/>
	<line class="st0" x1="45.8" y1="7.4" x2="58.6" y2="7.4"/>
	<line class="st0" x1="45.8" y1="12.3" x2="58.6" y2="12.3"/>
	<path class="st1" d="M33.5,9.4c-2,1-4.6-0.9-5.5-0.9c-0.9,0-3.5,2.5-6.1,2.5c-2.6,0-3.8-2.5-3.8-2.5C19.6,5.8,22.4,4,25.6,4
		C29.2,4,32.3,6.3,33.5,9.4z"/>
</g>
<path class="st2" d="M166.2-51.8"/>
</svg>
