<?xml version="1.0" encoding="utf-8"?>
<!-- Generator: Adobe Illustrator 24.0.0, SVG Export Plug-In . SVG Version: 6.00 Build 0)  -->
<svg version="1.1" id="Layer_1" xmlns="http://www.w3.org/2000/svg" xmlns:xlink="http://www.w3.org/1999/xlink" x="0px" y="0px"
	 width="67px" height="59.3px" viewBox="0 0 67 59.3" style="enable-background:new 0 0 67 59.3;" xml:space="preserve">
<style type="text/css">
	.st0{fill:none;stroke:#010101;stroke-width:2;stroke-linecap:round;stroke-linejoin:round;stroke-miterlimit:22.9256;}
	.st1{fill:#FEDB2E;stroke:#010101;stroke-width:2;stroke-linecap:round;stroke-linejoin:round;stroke-miterlimit:22.9256;}
</style>
<g>
	<path class="st0" d="M8.7,24.6C8.7,11.5,19.2,1,32.2,1l0,0c13,0,23.6,10.5,23.6,23.6c0,13-10.5,23.6-23.6,23.6 M32,7.7
		c9.4,0,17,7.6,17,17"/>
	<g>
		<path class="st0" d="M15.6,25.9c1,0,1.9,0.1,2.8,0.3l0.3,3.6c0.7,0.2,1.4,0.5,2.1,0.9l2.8-2.3c0.8,0.5,1.6,1.1,2.2,1.8
			c0.7,0.7,1.3,1.4,1.8,2.2l-2.3,2.8c0.4,0.7,0.6,1.4,0.9,2.1l3.6,0.3c0.2,0.9,0.3,1.9,0.3,2.8c0,1-0.1,1.9-0.3,2.8l-3.6,0.3
			c-0.2,0.7-0.5,1.4-0.9,2.1l2.3,2.8c-0.5,0.8-1.1,1.6-1.8,2.2c-0.7,0.7-1.4,1.3-2.2,1.8l-2.8-2.3c-0.7,0.4-1.4,0.6-2.1,0.9
			l-0.3,3.6c-0.9,0.2-1.9,0.3-2.8,0.3c-1,0-1.9-0.1-2.8-0.3l-0.3-3.6c-0.7-0.2-1.4-0.5-2.1-0.9l-2.8,2.3c-0.8-0.5-1.6-1.1-2.2-1.8
			c-0.7-0.7-1.3-1.4-1.8-2.2l2.3-2.8c-0.4-0.7-0.6-1.4-0.9-2.1l-3.6-0.3C1.1,42.4,1,41.4,1,40.5c0-1,0.1-1.9,0.3-2.8l3.6-0.3
			c0.2-0.7,0.5-1.4,0.9-2.1l-2.3-2.8c0.5-0.8,1.1-1.6,1.8-2.2c0.7-0.7,1.4-1.3,2.2-1.8l2.8,2.3c0.7-0.4,1.4-0.6,2.1-0.9l0.3-3.6
			C13.7,26,14.6,25.9,15.6,25.9L15.6,25.9z"/>
		<path class="st0" d="M15.6,34.6c3.2,0,5.9,2.6,5.9,5.9c0,3.2-2.6,5.9-5.9,5.9s-5.9-2.6-5.9-5.9C9.7,37.2,12.4,34.6,15.6,34.6
			L15.6,34.6z"/>
	</g>
	<polygon class="st1" points="66,52.8 60.5,58.3 46.2,44.1 51.9,38.6 66,52.8 	"/>
</g>
</svg>
