<?xml version="1.0" encoding="utf-8"?>
<!-- Generator: Adobe Illustrator 24.0.0, SVG Export Plug-In . SVG Version: 6.00 Build 0)  -->
<svg version="1.1" id="Layer_1" xmlns="http://www.w3.org/2000/svg" xmlns:xlink="http://www.w3.org/1999/xlink" x="0px" y="0px"
	 width="230.7px" height="57.9px" viewBox="0 0 230.7 57.9" style="enable-background:new 0 0 230.7 57.9;" xml:space="preserve">
<style type="text/css">
	.st0{fill:url(#SVGID_1_);}
	.st1{fill:#FFFFFF;}
</style>
<g>
	<linearGradient id="SVGID_1_" gradientUnits="userSpaceOnUse" x1="9.094947e-13" y1="28.9565" x2="230.6522" y2="28.9565">
		<stop  offset="0" style="stop-color:#F69710"/>
		<stop  offset="1" style="stop-color:#F7310E"/>
	</linearGradient>
	<path class="st0" d="M201.7,57.9H29c-16,0-29-13-29-29v0C0,13,13,0,29,0l172.7,0c16,0,29,13,29,29v0
		C230.7,44.9,217.7,57.9,201.7,57.9z"/>
	<g>
		<path class="st1" d="M68.3,27.9c0-3.7,2.9-6.5,6.8-6.5s6.8,2.7,6.8,6.5s-2.9,6.5-6.8,6.5S68.3,31.6,68.3,27.9z M79.5,27.9
			c0-2.6-1.9-4.4-4.4-4.4c-2.5,0-4.4,1.9-4.4,4.4s1.9,4.4,4.4,4.4C77.6,32.3,79.5,30.5,79.5,27.9z"/>
		<path class="st1" d="M93.5,28.7v5.5h-2.3V29c0-1.7-0.8-2.5-2.3-2.5c-1.6,0-2.7,1-2.7,2.9v4.9H84v-9.6h2.1v1.2
			c0.7-0.9,1.9-1.4,3.3-1.4C91.8,24.5,93.5,25.8,93.5,28.7z"/>
		<path class="st1" d="M100.4,32.9l0.8-1.8c1,0.8,2.6,1.4,4.2,1.4c2,0,2.8-0.7,2.8-1.6c0-2.7-7.5-0.9-7.5-5.6c0-2,1.6-3.8,5.1-3.8
			c1.5,0,3.1,0.4,4.2,1.1l-0.7,1.8c-1.1-0.7-2.4-1-3.5-1c-1.9,0-2.7,0.8-2.7,1.7c0,2.7,7.5,0.9,7.5,5.6c0,2-1.6,3.7-5.1,3.7
			C103.4,34.4,101.4,33.8,100.4,32.9z"/>
		<path class="st1" d="M111.7,29.4c0-2.9,2.2-4.9,5.1-4.9c3,0,5.1,2,5.1,4.9s-2.1,4.9-5.1,4.9C113.9,34.3,111.7,32.3,111.7,29.4z
			 M119.7,29.4c0-1.8-1.2-3-2.9-3c-1.6,0-2.8,1.2-2.8,3c0,1.8,1.2,3,2.8,3C118.5,32.4,119.7,31.3,119.7,29.4z"/>
		<path class="st1" d="M133.4,24.6v9.6h-2.1V33c-0.7,0.9-1.9,1.4-3.1,1.4c-2.5,0-4.1-1.4-4.1-4.2v-5.5h2.3v5.2
			c0,1.7,0.8,2.6,2.3,2.6c1.6,0,2.6-1,2.6-2.9v-4.9H133.4z"/>
		<path class="st1" d="M145.7,28.7v5.5h-2.3V29c0-1.7-0.8-2.5-2.3-2.5c-1.6,0-2.7,1-2.7,2.9v4.9h-2.3v-9.6h2.1v1.2
			c0.7-0.9,1.9-1.4,3.3-1.4C144,24.5,145.7,25.8,145.7,28.7z"/>
		<path class="st1" d="M158,20.9v13.4h-2.2V33c-0.8,0.9-1.9,1.4-3.2,1.4c-2.8,0-4.9-1.9-4.9-4.9c0-3,2.1-4.9,4.9-4.9
			c1.2,0,2.3,0.4,3.1,1.3v-4.9H158z M155.7,29.4c0-1.8-1.2-3-2.9-3c-1.6,0-2.9,1.2-2.9,3c0,1.8,1.2,3,2.9,3
			C154.5,32.4,155.7,31.3,155.7,29.4z"/>
		<path class="st1" d="M160.1,29.4c0-2.9,2.2-4.9,5.2-4.9c1.9,0,3.4,0.8,4.1,2.2l-1.7,1c-0.6-0.9-1.4-1.3-2.4-1.3
			c-1.7,0-2.9,1.2-2.9,3c0,1.9,1.3,3,2.9,3c1,0,1.8-0.4,2.4-1.3l1.7,1c-0.7,1.4-2.2,2.3-4.1,2.3C162.2,34.3,160.1,32.3,160.1,29.4z"
			/>
		<path class="st1" d="M171.3,20.9h2.3v13.4h-2.3V20.9z"/>
		<path class="st1" d="M175.6,29.4c0-2.9,2.2-4.9,5.1-4.9c3,0,5.1,2,5.1,4.9s-2.1,4.9-5.1,4.9C177.8,34.3,175.6,32.3,175.6,29.4z
			 M183.6,29.4c0-1.8-1.2-3-2.9-3c-1.6,0-2.8,1.2-2.8,3c0,1.8,1.2,3,2.8,3C182.4,32.4,183.6,31.3,183.6,29.4z"/>
		<path class="st1" d="M197.3,24.6v9.6h-2.1V33c-0.7,0.9-1.9,1.4-3.1,1.4c-2.5,0-4.1-1.4-4.1-4.2v-5.5h2.3v5.2
			c0,1.7,0.8,2.6,2.3,2.6c1.6,0,2.6-1,2.6-2.9v-4.9H197.3z"/>
		<path class="st1" d="M209.6,20.9v13.4h-2.2V33c-0.8,0.9-1.9,1.4-3.2,1.4c-2.8,0-4.9-1.9-4.9-4.9c0-3,2.1-4.9,4.9-4.9
			c1.2,0,2.3,0.4,3.1,1.3v-4.9H209.6z M207.4,29.4c0-1.8-1.2-3-2.9-3c-1.6,0-2.9,1.2-2.9,3c0,1.8,1.2,3,2.9,3
			C206.1,32.4,207.4,31.3,207.4,29.4z"/>
	</g>
	<g>
		<path class="st1" d="M12.7,28.7c-0.1,0-0.1,0.1-0.2,0.2l-0.3,2.2l0.3,2.2c0,0.1,0.1,0.2,0.2,0.2c0.1,0,0.1-0.1,0.2-0.2v0v0
			l0.3-2.2l-0.3-2.2C12.8,28.8,12.8,28.7,12.7,28.7L12.7,28.7z"/>
		<path class="st1" d="M14.3,27.5c0-0.1-0.1-0.2-0.2-0.2c-0.1,0-0.2,0.1-0.2,0.2c0,0-0.4,3.5-0.4,3.5l0.4,3.5c0,0.1,0.1,0.2,0.2,0.2
			c0.1,0,0.2-0.1,0.2-0.2l0.4-3.5L14.3,27.5L14.3,27.5z"/>
		<path class="st1" d="M20.4,24.3c-0.2,0-0.3,0.1-0.3,0.3l-0.3,6.5l0.3,4.2c0,0.2,0.1,0.3,0.3,0.3c0.2,0,0.3-0.1,0.3-0.3v0l0.3-4.2
			l-0.3-6.5C20.7,24.4,20.6,24.3,20.4,24.3z"/>
		<path class="st1" d="M17.3,26.5c-0.1,0-0.2,0.1-0.2,0.2l-0.3,4.3l0.3,4.2c0,0.1,0.1,0.2,0.2,0.2c0.1,0,0.2-0.1,0.2-0.2l0.4-4.2
			l-0.4-4.3C17.5,26.6,17.4,26.5,17.3,26.5z"/>
		<path class="st1" d="M23.6,35.6c0.2,0,0.4-0.2,0.4-0.4l0.3-4.1L24,22.4c0-0.2-0.2-0.4-0.4-0.4c-0.2,0-0.4,0.2-0.4,0.4L23,31.1
			l0.3,4.1C23.3,35.4,23.4,35.6,23.6,35.6z"/>
		<path class="st1" d="M30.2,35.6c0.3,0,0.5-0.2,0.5-0.5v0v0l0.2-4l-0.2-10c0-0.3-0.2-0.5-0.5-0.5c-0.3,0-0.5,0.2-0.5,0.5l-0.2,10
			c0,0,0.2,4,0.2,4C29.7,35.4,30,35.6,30.2,35.6z"/>
		<path class="st1" d="M26.9,35.6c0.2,0,0.4-0.2,0.4-0.4v0l0.3-4.1l-0.3-8.7c0-0.2-0.2-0.4-0.4-0.4c-0.2,0-0.4,0.2-0.4,0.4l-0.2,8.7
			l0.2,4.1C26.5,35.4,26.7,35.6,26.9,35.6L26.9,35.6z"/>
		<path class="st1" d="M18.8,35.5c0.1,0,0.3-0.1,0.3-0.3l0.4-4.2l-0.4-4c0-0.1-0.1-0.3-0.3-0.3c-0.1,0-0.3,0.1-0.3,0.3l-0.3,4
			l0.3,4.2C18.6,35.4,18.7,35.5,18.8,35.5z"/>
		<path class="st1" d="M15.7,35.3c0.1,0,0.2-0.1,0.2-0.2l0.4-4.1l-0.4-4.2c0-0.1-0.1-0.2-0.2-0.2c-0.1,0-0.2,0.1-0.2,0.2l-0.4,4.2
			l0.4,4.1C15.5,35.2,15.6,35.3,15.7,35.3L15.7,35.3z"/>
		<path class="st1" d="M28.6,22.2c-0.3,0-0.5,0.2-0.5,0.5l-0.2,8.4l0.2,4.1c0,0.3,0.2,0.5,0.5,0.5c0.3,0,0.5-0.2,0.5-0.5v0l0.2-4.1
			L29,22.7C29,22.4,28.8,22.2,28.6,22.2L28.6,22.2z"/>
		<path class="st1" d="M22,35.6c0.2,0,0.3-0.1,0.3-0.3l0.3-4.2l-0.3-8c0-0.2-0.2-0.3-0.3-0.3c-0.2,0-0.3,0.1-0.3,0.3l-0.3,8l0.3,4.2
			C21.7,35.4,21.9,35.6,22,35.6z"/>
		<path class="st1" d="M25.7,35.2L25.7,35.2l0.3-4.1l-0.3-9c0-0.2-0.2-0.4-0.4-0.4c-0.2,0-0.4,0.2-0.4,0.4l-0.2,9l0.2,4.1
			c0,0.2,0.2,0.4,0.4,0.4C25.5,35.6,25.7,35.4,25.7,35.2L25.7,35.2L25.7,35.2z"/>
		<path class="st1" d="M46.9,25.9c-0.7,0-1.3,0.1-1.9,0.4c-0.4-4.4-4.1-7.8-8.5-7.8c-1.1,0-2.2,0.2-3.1,0.6
			c-0.4,0.1-0.5,0.3-0.5,0.6V35c0,0.3,0.2,0.5,0.5,0.6c0,0,13.4,0,13.5,0c2.7,0,4.9-2.2,4.9-4.9C51.7,28.1,49.5,25.9,46.9,25.9
			L46.9,25.9z"/>
		<path class="st1" d="M31.9,19.6c-0.3,0-0.5,0.2-0.5,0.5l-0.2,10.9l0.2,4c0,0.3,0.2,0.5,0.5,0.5c0.3,0,0.5-0.2,0.5-0.5v0l0.2-4
			l-0.2-10.9C32.4,19.8,32.2,19.6,31.9,19.6L31.9,19.6z"/>
	</g>
</g>
</svg>
