<?xml version="1.0" encoding="utf-8"?>
<!-- Generator: Adobe Illustrator 24.0.0, SVG Export Plug-In . SVG Version: 6.00 Build 0)  -->
<svg version="1.1" id="Layer_1" xmlns="http://www.w3.org/2000/svg" xmlns:xlink="http://www.w3.org/1999/xlink" x="0px" y="0px"
	 width="230.7px" height="57.9px" viewBox="0 0 230.7 57.9" style="enable-background:new 0 0 230.7 57.9;" xml:space="preserve">
<style type="text/css">
	.st0{fill:#2EBC59;}
	.st1{fill:#FFFFFF;}
</style>
<g>
	<path class="st0" d="M201.7,57.9H29c-16,0-29-13-29-29v0C0,13,13,0,29,0l172.7,0c16,0,29,13,29,29v0
		C230.7,44.9,217.7,57.9,201.7,57.9z"/>
	<g>
		<path class="st1" d="M68.3,27.9c0-3.7,2.9-6.5,6.8-6.5s6.8,2.7,6.8,6.5s-2.9,6.5-6.8,6.5S68.3,31.6,68.3,27.9z M79.5,27.9
			c0-2.6-1.9-4.4-4.4-4.4c-2.5,0-4.4,1.9-4.4,4.4s1.9,4.4,4.4,4.4C77.6,32.3,79.5,30.5,79.5,27.9z"/>
		<path class="st1" d="M93.5,28.7v5.5h-2.3V29c0-1.7-0.8-2.5-2.3-2.5c-1.6,0-2.7,1-2.7,2.9v4.9H84v-9.6h2.1v1.2
			c0.7-0.9,1.9-1.4,3.3-1.4C91.8,24.5,93.5,25.8,93.5,28.7z"/>
		<path class="st1" d="M100.4,32.9l0.8-1.8c1,0.8,2.6,1.4,4.2,1.4c2,0,2.8-0.7,2.8-1.6c0-2.7-7.5-0.9-7.5-5.6c0-2,1.6-3.8,5.1-3.8
			c1.5,0,3.1,0.4,4.2,1.1l-0.7,1.8c-1.1-0.7-2.4-1-3.5-1c-1.9,0-2.7,0.8-2.7,1.7c0,2.7,7.5,0.9,7.5,5.6c0,2-1.6,3.7-5.1,3.7
			C103.4,34.4,101.4,33.8,100.4,32.9z"/>
		<path class="st1" d="M122.7,29.4c0,3-2.1,4.9-4.9,4.9c-1.2,0-2.3-0.4-3.1-1.3v4.7h-2.3V24.6h2.1v1.3c0.8-0.9,1.9-1.4,3.2-1.4
			C120.6,24.5,122.7,26.4,122.7,29.4z M120.4,29.4c0-1.8-1.2-3-2.8-3c-1.6,0-2.9,1.2-2.9,3c0,1.8,1.2,3,2.9,3
			C119.2,32.4,120.4,31.3,120.4,29.4z"/>
		<path class="st1" d="M124,29.4c0-2.9,2.2-4.9,5.1-4.9c3,0,5.1,2,5.1,4.9s-2.1,4.9-5.1,4.9C126.2,34.3,124,32.3,124,29.4z
			 M132,29.4c0-1.8-1.2-3-2.9-3c-1.6,0-2.8,1.2-2.8,3c0,1.8,1.2,3,2.8,3C130.8,32.4,132,31.3,132,29.4z"/>
		<path class="st1" d="M142.1,33.7c-0.5,0.4-1.4,0.6-2.2,0.6c-2.1,0-3.3-1.1-3.3-3.2v-4.6h-1.6v-1.8h1.6v-2.2h2.3v2.2h2.6v1.8h-2.6
			v4.6c0,0.9,0.5,1.4,1.3,1.4c0.5,0,0.9-0.1,1.3-0.4L142.1,33.7z"/>
		<path class="st1" d="M143.6,21.7c0-0.8,0.6-1.4,1.4-1.4s1.4,0.6,1.4,1.3c0,0.8-0.6,1.4-1.4,1.4C144.2,23,143.6,22.4,143.6,21.7z
			 M143.9,24.6h2.3v9.6h-2.3V24.6z"/>
		<path class="st1" d="M151.6,24.1v0.6h2.6v1.8h-2.6v7.7h-2.3v-7.7h-1.6v-1.8h1.6v-0.6c0-2,1.2-3.3,3.4-3.3c0.8,0,1.5,0.2,2,0.5
			l-0.6,1.7c-0.3-0.2-0.8-0.4-1.2-0.4C152.1,22.6,151.6,23.1,151.6,24.1z"/>
		<path class="st1" d="M164.7,24.6L160.2,35c-0.9,2.2-2.1,2.8-3.7,2.8c-1,0-2-0.3-2.6-0.9l0.9-1.7c0.4,0.4,1,0.7,1.7,0.7
			c0.8,0,1.3-0.4,1.7-1.3l0.2-0.4l-4.2-9.7h2.3l3,7.1l3-7.1H164.7z"/>
	</g>
	<path class="st1" d="M28.7,12.5c-9.1,0-16.5,7.4-16.5,16.5c0,9.1,7.4,16.5,16.5,16.5c9.1,0,16.5-7.4,16.5-16.5
		C45.2,19.8,37.9,12.5,28.7,12.5z M36.3,36.3c-0.3,0.5-0.9,0.6-1.4,0.3c-3.9-2.4-8.8-2.9-14.5-1.6c-0.6,0.1-1.1-0.2-1.2-0.8
		c-0.1-0.6,0.2-1.1,0.8-1.2c6.3-1.4,11.7-0.8,16,1.8C36.5,35.1,36.6,35.8,36.3,36.3z M38.3,31.8c-0.4,0.6-1.2,0.8-1.8,0.4
		c-4.4-2.7-11.2-3.5-16.4-1.9c-0.7,0.2-1.4-0.2-1.6-0.9c-0.2-0.7,0.2-1.4,0.9-1.6c6-1.8,13.4-0.9,18.5,2.2
		C38.5,30.4,38.7,31.2,38.3,31.8L38.3,31.8z M38.5,27.1c-5.3-3.2-14.1-3.4-19.2-1.9c-0.8,0.2-1.7-0.2-1.9-1c-0.2-0.8,0.2-1.7,1-1.9
		c5.8-1.8,15.5-1.4,21.6,2.2c0.7,0.4,1,1.4,0.5,2.1C40.2,27.3,39.2,27.5,38.5,27.1z"/>
</g>
</svg>
