<?xml version="1.0" encoding="utf-8"?>
<!-- Generator: Adobe Illustrator 24.0.0, SVG Export Plug-In . SVG Version: 6.00 Build 0)  -->
<svg version="1.1" id="Layer_1" xmlns="http://www.w3.org/2000/svg" xmlns:xlink="http://www.w3.org/1999/xlink" x="0px" y="0px"
	 width="230.7px" height="57.9px" viewBox="0 0 230.7 57.9" style="enable-background:new 0 0 230.7 57.9;" xml:space="preserve">
<style type="text/css">
	.st0{fill:#FFFFFF;}
	.st1{fill:#FCF0C4;}
	.st2{fill:#F4C898;}
	.st3{fill:#EB8A22;}
	.st4{fill:#632569;}
	.st5{fill:#3391C4;}
	.st6{fill:#EB8B24;}
	.st7{fill:#F9C716;}
	.st8{fill:#C53A2A;}
	.st9{fill:#C5392A;}
	.st10{fill:#3492C5;}
	.st11{fill:#F9C615;}
</style>
<g>
	<path d="M201.7,57.9H29c-16,0-29-13-29-29v0C0,13,13,0,29,0l172.7,0c16,0,29,13,29,29v0C230.7,44.9,217.7,57.9,201.7,57.9z"/>
	<g>
		<path class="st0" d="M68.3,27.9c0-3.7,2.9-6.5,6.8-6.5s6.8,2.7,6.8,6.5s-2.9,6.5-6.8,6.5S68.3,31.6,68.3,27.9z M79.5,27.9
			c0-2.6-1.9-4.4-4.4-4.4c-2.5,0-4.4,1.9-4.4,4.4s1.9,4.4,4.4,4.4C77.6,32.3,79.5,30.5,79.5,27.9z"/>
		<path class="st0" d="M93.5,28.7v5.5h-2.3V29c0-1.7-0.8-2.5-2.3-2.5c-1.6,0-2.7,1-2.7,2.9v4.9H84v-9.6h2.1v1.2
			c0.7-0.9,1.9-1.4,3.3-1.4C91.8,24.5,93.5,25.8,93.5,28.7z"/>
		<path class="st0" d="M100.4,32.9l0.8-1.8c1,0.8,2.6,1.4,4.2,1.4c2,0,2.8-0.7,2.8-1.6c0-2.7-7.5-0.9-7.5-5.6c0-2,1.6-3.8,5.1-3.8
			c1.5,0,3.1,0.4,4.2,1.1l-0.7,1.8c-1.1-0.7-2.4-1-3.5-1c-1.9,0-2.7,0.8-2.7,1.7c0,2.7,7.5,0.9,7.5,5.6c0,2-1.6,3.7-5.1,3.7
			C103.4,34.4,101.4,33.8,100.4,32.9z"/>
		<path class="st0" d="M118.3,33.7c-0.5,0.4-1.4,0.6-2.2,0.6c-2.1,0-3.3-1.1-3.3-3.2v-4.6h-1.6v-1.8h1.6v-2.2h2.3v2.2h2.6v1.8h-2.6
			v4.6c0,0.9,0.5,1.4,1.3,1.4c0.5,0,0.9-0.1,1.3-0.4L118.3,33.7z"/>
		<path class="st0" d="M119.8,21.7c0-0.8,0.6-1.4,1.4-1.4s1.4,0.6,1.4,1.3c0,0.8-0.6,1.4-1.4,1.4C120.4,23,119.8,22.4,119.8,21.7z
			 M120.1,24.6h2.3v9.6h-2.3V24.6z"/>
		<path class="st0" d="M131,33.7c-0.5,0.4-1.4,0.6-2.2,0.6c-2.1,0-3.3-1.1-3.3-3.2v-4.6H124v-1.8h1.6v-2.2h2.3v2.2h2.6v1.8h-2.6v4.6
			c0,0.9,0.5,1.4,1.3,1.4c0.5,0,0.9-0.1,1.3-0.4L131,33.7z"/>
		<path class="st0" d="M132,29.4c0-2.9,2.2-4.9,5.2-4.9c1.9,0,3.4,0.8,4.1,2.2l-1.7,1c-0.6-0.9-1.4-1.3-2.4-1.3
			c-1.7,0-2.9,1.2-2.9,3c0,1.9,1.3,3,2.9,3c1,0,1.8-0.4,2.4-1.3l1.7,1c-0.7,1.4-2.2,2.3-4.1,2.3C134.2,34.3,132,32.3,132,29.4z"/>
		<path class="st0" d="M152.7,28.7v5.5h-2.3V29c0-1.7-0.8-2.5-2.3-2.5c-1.6,0-2.7,1-2.7,2.9v4.9h-2.3V20.9h2.3v4.9
			c0.7-0.8,1.9-1.2,3.2-1.2C151,24.5,152.7,25.8,152.7,28.7z"/>
		<path class="st0" d="M164.5,30.1h-7.5c0.3,1.4,1.4,2.3,3.1,2.3c1.1,0,1.9-0.3,2.6-1l1.2,1.4c-0.9,1-2.2,1.6-3.9,1.6
			c-3.2,0-5.3-2.1-5.3-4.9c0-2.9,2.1-4.9,5-4.9c2.8,0,4.9,2,4.9,5C164.5,29.6,164.5,29.9,164.5,30.1z M156.9,28.6h5.5
			c-0.2-1.4-1.2-2.3-2.7-2.3C158.2,26.3,157.1,27.2,156.9,28.6z"/>
		<path class="st0" d="M172.2,24.5v2.1c-0.2,0-0.4-0.1-0.5-0.1c-1.7,0-2.8,1-2.8,3v4.7h-2.3v-9.6h2.1V26
			C169.4,25,170.6,24.5,172.2,24.5z"/>
	</g>
	<g>
		<path class="st1" d="M30.8,38.6c0,0,0-0.1,0-0.1c0-1.4,0-2.9,0-4.3c0,0,0-0.1,0-0.1c0,0,0,0,0.1,0c0,0,0.1,0,0.1,0
			c2.7,0,5.3,0,8,0c0.1,0,0.1,0,0.2,0c0,0,0,0.1,0,0.1c0,1.4,0,2.9,0,4.3c0,0.1,0,0.1,0,0.1C36.3,38.6,33.6,38.6,30.8,38.6z
			 M39.1,34C39,34,39,34,39.1,34c-2.8,0-5.5,0-8.2,0c0,0,0,0-0.1,0c0,0,0,0,0,0s0,0,0,0c0,0.1,0,4.4,0,4.5c0.1,0,8.2,0,8.3,0
			C39.1,37,39.1,35.5,39.1,34z"/>
		<path class="st2" d="M48.3,19.4c0,0,0,0.1,0,0.1c0,1.6,0,3.2,0,4.8c0,0,0,0.1,0,0.1c0,0,0,0,0,0c0,0,0-0.1,0-0.1
			c0-1.6,0-3.1,0-4.7C48.3,19.5,48.3,19.4,48.3,19.4c-2.8,0-5.5,0-8.3,0c0,0,0,0.1,0,0.1c0,1.6,0,3.1,0,4.7c0,0,0,0.1,0,0.1
			c0,0,0,0,0,0c0,0,0-0.1,0-0.1c0-1.6,0-3.2,0-4.7c0,0,0-0.1,0-0.1C42.8,19.4,45.6,19.4,48.3,19.4z"/>
		<path class="st3" d="M40.1,24.3c0,0,0-0.1,0-0.1c0-1.6,0-3.1,0-4.7c0,0,0-0.1,0-0.1c2.7,0,5.5,0,8.2,0c0,0,0,0.1,0,0.1
			c0,1.6,0,3.1,0,4.7c0,0,0,0.1,0,0.1c0,0-0.1,0-0.1,0c-2.7,0-5.4,0-8,0C40.1,24.4,40.1,24.4,40.1,24.3z"/>
		<path class="st4" d="M29.8,20.5c0,1.3,0,2.6,0,3.8c-0.1,0-8.2,0-8.3,0c0-1.3,0-2.6,0-3.8C24.3,20.5,27.1,20.5,29.8,20.5z"/>
		<path class="st5" d="M12.3,37.7c0-1.2,0-2.5,0-3.7c0.1,0,8.2,0,8.3,0c0,0.1,0,3.6,0,3.7c0,0,0,0,0,0c0,0,0,0,0,0c0,0,0,0,0,0
			C17.8,37.8,15,37.8,12.3,37.7C12.3,37.8,12.3,37.8,12.3,37.7C12.3,37.7,12.3,37.7,12.3,37.7z"/>
		<path class="st4" d="M21.5,34c0.2,0,8.2,0,8.3,0c0,0.1,0,2.6,0,2.7c0,0,0,0,0,0c0,0,0,0,0,0c0,0,0,0-0.1,0c-2.7,0-5.4,0-8.2,0
			c0,0,0,0,0,0C21.5,36.6,21.5,34.1,21.5,34z"/>
		<path class="st6" d="M48.3,34c0,0.9,0,1.8,0,2.7c0,0,0,0,0,0c0,0,0,0,0,0c0,0,0,0-0.1,0c-2.7,0-5.4,0-8.1,0c0,0,0,0,0,0
			c0,0,0,0,0,0c0-0.9,0-1.8,0-2.7C40.1,34,48.2,34,48.3,34z"/>
		<path class="st7" d="M30.8,24.3c0-0.8,0-1.6,0-2.5c0,0,0,0,0,0c0,0,0,0,0,0c0,0,0,0,0,0c2.7,0,5.4,0,8.2,0c0,0,0,0,0,0
			c0,0,0,0,0,0c0,0.8,0,1.6,0,2.5C39,24.4,30.9,24.4,30.8,24.3z"/>
		<path class="st8" d="M49.3,22.4c2.8,0,5.5,0,8.3,0c0,0.1,0,1.8,0,2c-0.1,0-8.2,0-8.3,0C49.3,24.3,49.3,22.5,49.3,22.4z"/>
		<path class="st9" d="M49.3,35.5c0-0.5,0-1,0-1.5c0.1,0,8.2,0,8.3,0c0,0.1,0,1.4,0,1.5C57.5,35.5,49.4,35.5,49.3,35.5z"/>
		<path class="st10" d="M20.6,23c0,0.5,0,0.9,0,1.3c-0.1,0-8.2,0-8.3,0c0-0.4,0-0.9,0-1.3C15,23,17.8,23,20.6,23z"/>
		<g>
			<path class="st0" d="M56.3,30.2c0.4,0.7,0.9,1.4,1.4,2.2c-0.7,0-1.4,0-2,0c-0.3-0.6-0.7-1.2-1-1.8c-0.4,0-0.7,0-1.1,0
				c0,0.2,0,0.4,0,0.6c0,0.2,0,0.4,0,0.6c0,0.2,0,0.4,0,0.6c-0.6,0-1.1,0-1.7,0c0,0,0,0,0,0c0,0,0,0,0,0c0,0,0-0.1,0-0.1
				c0-2.1,0-4.1,0-6.2c0,0,0,0,0,0c0,0,0.1,0,0.1,0c1,0,1.9,0,2.9,0c0.5,0,0.9,0.1,1.4,0.2c0.4,0.2,0.8,0.4,1,0.8
				c0.2,0.3,0.3,0.6,0.3,0.9c0,0.3,0,0.7-0.1,1c-0.1,0.5-0.4,1-0.9,1.2C56.4,30.1,56.3,30.1,56.3,30.2
				C56.3,30.1,56.3,30.1,56.3,30.2z M53.4,29.1c0,0,0.1,0,0.1,0c0.4,0,0.8,0,1.2,0c0.1,0,0.2,0,0.3,0c0.3-0.1,0.5-0.2,0.6-0.6
				c0-0.2,0-0.4,0-0.5c-0.1-0.2-0.2-0.4-0.4-0.5c-0.1-0.1-0.3-0.1-0.4-0.1c-0.5,0-0.9,0-1.4,0c0,0,0,0-0.1,0
				C53.4,28,53.4,28.5,53.4,29.1z"/>
			<path class="st0" d="M40.8,26c0,0.8,0,1.7,0,2.5c0.1,0,2.3,0,2.4,0c0,0,0-0.1,0-0.1c0-0.8,0-1.5,0-2.3c0,0,0-0.1,0-0.1
				c0.6,0,1.1,0,1.7,0c0,0.1,0,6.2,0,6.3c-0.1,0-1.5,0-1.7,0c0-0.2,0-0.3,0-0.5c0-0.2,0-0.3,0-0.5c0-0.2,0-0.3,0-0.5
				c0-0.2,0-0.3,0-0.5c0-0.2,0-0.3,0-0.5c0,0,0,0,0,0c0,0,0,0,0,0c0,0-0.1,0-0.1,0c-0.8,0-1.5,0-2.3,0c0,0,0,0,0,0
				c0,0.8,0,1.6,0,2.4c-0.6,0-1.1,0-1.7,0c0-2.1,0-4.2,0-6.4C39.6,26,40.2,26,40.8,26z"/>
			<path class="st0" d="M47.6,29.8c0,0.4,0,0.8,0,1.1c0.3,0,0.6,0,0.8,0c0.3,0,0.5,0,0.8,0c0.3,0,0.5,0,0.8,0c0.3,0,0.5,0,0.8,0
				c0,0.1,0,1.2,0,1.4c-0.1,0-4.9,0-5,0c0-0.1,0-6.2,0-6.3c1.7,0,3.3,0,5,0c0,0.5,0,0.9,0,1.4c-1.1,0-2.2,0-3.3,0c0,0.1,0,0.9,0,1.1
				c0,0,0.1,0,0.1,0c0.6,0,1.1,0,1.7,0c0,0,0.1,0,0.1,0c0,0.1,0,1.1,0,1.3c-0.1,0-0.3,0-0.4,0c-0.1,0-0.3,0-0.4,0
				c-0.1,0-0.3,0-0.4,0c-0.1,0-0.3,0-0.4,0C47.8,29.8,47.7,29.8,47.6,29.8z"/>
			<path class="st0" d="M12.7,30.2C12.8,30.2,12.8,30.2,12.7,30.2c0.8,0.6,1.6,0.9,2.5,0.8c0.1,0,0.2,0,0.3-0.1
				c0.3-0.1,0.3-0.4,0.1-0.6c-0.1-0.1-0.2-0.2-0.3-0.2c-0.3-0.1-0.5-0.2-0.8-0.3c-0.4-0.1-0.7-0.2-1.1-0.4c-0.2-0.1-0.3-0.2-0.5-0.3
				c-0.2-0.2-0.4-0.4-0.5-0.7c-0.1-0.4-0.1-0.8,0-1.2c0.2-0.5,0.6-0.9,1.1-1c0.3-0.1,0.7-0.2,1.1-0.2c0.5,0,0.9,0,1.4,0.2
				c0.5,0.2,0.9,0.4,1.2,0.8c0.1,0.1,0.2,0.2,0.2,0.4c-0.4,0.3-0.9,0.6-1.3,0.8c0,0-0.1,0-0.1-0.1c-0.3-0.4-0.7-0.6-1.1-0.6
				c-0.1,0-0.2,0-0.3,0c-0.1,0-0.1,0-0.2,0.1c-0.2,0.1-0.3,0.3-0.1,0.5c0.1,0.1,0.2,0.1,0.2,0.2c0.2,0.1,0.4,0.2,0.6,0.2
				c0.4,0.1,0.7,0.2,1.1,0.3c0.2,0.1,0.4,0.2,0.6,0.3c0.4,0.3,0.6,0.7,0.7,1.2c0,0.2,0,0.4,0,0.6c-0.1,0.6-0.5,1-1,1.2
				c-0.3,0.1-0.7,0.2-1,0.3c-0.5,0.1-0.9,0.1-1.4,0c-0.6-0.1-1.1-0.3-1.6-0.5c-0.1,0-0.1-0.1-0.2-0.1C12.4,31.2,12.6,30.7,12.7,30.2
				z"/>
			<path class="st0" d="M38.4,27.3c-0.1,0.1-1.2,0.8-1.3,0.8c0,0,0,0,0,0c-0.3-0.5-0.8-0.7-1.3-0.7c-0.2,0-0.4,0-0.5,0.1
				c-0.5,0.1-0.8,0.4-0.9,0.9c-0.2,0.5-0.2,1.1,0,1.6c0.2,0.6,0.6,0.9,1.2,1c0.6,0.1,1.1-0.1,1.5-0.6c0,0,0-0.1,0.1-0.1
				c0.4,0.3,0.9,0.5,1.3,0.8c0,0.1,0,0.1,0,0.2c-0.2,0.3-0.4,0.6-0.8,0.8c-0.4,0.2-0.8,0.3-1.2,0.4c-0.6,0.1-1.3,0-1.9-0.1
				c-0.6-0.2-1.2-0.5-1.5-1.1c-0.2-0.4-0.4-0.8-0.5-1.2c-0.1-0.6-0.1-1.1,0-1.7c0.2-1.1,0.9-1.8,1.9-2.1c0.6-0.2,1.1-0.2,1.7-0.2
				c0.4,0,0.8,0.1,1.2,0.3c0.4,0.2,0.7,0.4,0.9,0.7C38.3,27.1,38.4,27.1,38.4,27.3z"/>
			<path class="st0" d="M32.3,26c0,0.5,0,0.9,0,1.4c0,0-0.1,0-0.1,0c-0.5,0-1.1,0-1.6,0c0,0-0.1,0-0.1,0c0,0.3,0,0.5,0,0.8
				c0,0.3,0,0.5,0,0.8c0,0.3,0,0.5,0,0.8c0,0.3,0,0.5,0,0.8c0,0.3,0,0.5,0,0.8c0,0.3,0,0.5,0,0.8c-0.1,0-1.5,0-1.7,0
				c0,0,0-0.1,0-0.1c0-0.5,0-1,0-1.4c0-1.1,0-2.2,0-3.2c0,0,0-0.1,0-0.1c-0.6,0-1.2,0-1.8,0c0-0.5,0-0.9,0-1.4
				C26.9,26,32.1,26,32.3,26z"/>
			<path class="st0" d="M21.4,32.3c-0.6,0-1.1,0-1.7,0c0-1.6,0-3.3,0-4.9c-0.6,0-1.2,0-1.8,0c0-0.5,0-1,0-1.4c1.8,0,3.6,0,5.4,0
				c0,0.5,0,0.9,0,1.4c-0.6,0-1.2,0-1.9,0C21.4,29.1,21.4,30.7,21.4,32.3z"/>
			<path class="st0" d="M24.2,26c0.6,0,1.1,0,1.7,0c0,2.1,0,4.2,0,6.3c-0.1,0-1.6,0-1.7,0C24.2,30.2,24.2,28.1,24.2,26z"/>
		</g>
		<path class="st11" d="M39.1,34c0,1.5,0,3,0,4.5c-0.1,0-8.2,0-8.3,0c0-0.1,0-4.3,0-4.5c0,0,0,0,0,0s0,0,0,0c0,0,0,0,0.1,0
			C33.6,34,36.3,34,39.1,34C39,34,39,34,39.1,34z"/>
	</g>
</g>
</svg>
