<?xml version="1.0" encoding="utf-8"?>
<!-- Generator: Adobe Illustrator 22.0.1, SVG Export Plug-In . SVG Version: 6.00 Build 0)  -->
<svg version="1.1" id="Layer_1" xmlns="http://www.w3.org/2000/svg" xmlns:xlink="http://www.w3.org/1999/xlink" x="0px" y="0px"
	 width="70.9px" height="70.2px" viewBox="0 0 70.9 70.2" style="enable-background:new 0 0 70.9 70.2;" xml:space="preserve">
<style type="text/css">
	.st0{fill:#FFDA30;}
</style>
<image style="overflow:visible;" width="1050" height="700" xlink:href="88EE71A1.jpg"  transform="matrix(0.9301 0 0 0.9301 215.9887 218.9099)">
</image>
<path class="st0" d="M69,40.1c0-2.2-1.1-4.2-2.8-5.4c2.7-0.8,4.7-3.3,4.7-6.3c0-3.6-2.9-6.6-6.5-6.6H47.2C48.9,16.5,48.9,10.7,47,4
	c-0.8-2.9-3.2-4.2-5-4c-1.4,0.2-3,1.3-3.1,4c-0.6,12.9-5.4,15.4-10.2,17.7c-2,1-3.9,1.9-5.3,3.6h-4.7v-1.3c0-0.7-0.6-1.3-1.3-1.3
	h-4.1c-0.1-1.1-1.1-2-2.2-2H7c-1.2,0-2.1,0.9-2.2,2H0.7c-0.4,0-0.7,0.3-0.7,0.7s0.3,0.7,0.7,0.7h4.1v12.1c0,1.2,1,2.2,2.3,2.2h4
	c1.2,0,2.3-1,2.3-2.2V24.1l4,0V26v39.8v1.9H0.7C0.3,67.7,0,68,0,68.4c0,0.4,0.3,0.7,0.7,0.7h16.7c0.7,0,1.3-0.6,1.3-1.3v-1.3h0.9
	c1.6,3.2,5.3,3.6,8.6,3.6c0.8,0,1.5,0,2.2,0c0.6,0,1.3,0,1.8,0h26.3c3.6,0,6.5-2.9,6.5-6.6c0-2.2-1.1-4.1-2.7-5.3
	c2.9-0.7,5-3.3,5-6.4c0-2.3-1.1-4.3-2.9-5.4C67,45.6,69,43.1,69,40.1 M11.9,36.3c0,0.5-0.4,0.9-0.9,0.9H7c-0.5,0-0.9-0.4-0.9-0.9
	V23.5v-0.4c0-0.5,0.4-0.9,0.9-0.9h4c0.5,0,0.9,0.4,0.9,0.9v0.4V36.3z M62.6,45.2h-1.8c-0.4,0-0.7,0.3-0.7,0.7c0,0.4,0.3,0.7,0.7,0.7
	c2.8,0,5.1,2.3,5.1,5.2c0,2.9-2.3,5.2-5.1,5.2h-2.3c-0.4,0-0.7,0.3-0.7,0.7c0,0.4,0.3,0.7,0.7,0.7c2.8,0,5.1,2.3,5.1,5.2
	c0,2.9-2.3,5.2-5.1,5.2H32.2c-0.6,0-1.2,0-1.9,0c-3.8,0.1-8.2,0.3-9.7-3.2c-0.1-0.3-0.4-0.4-0.6-0.4h-1.3V26.7h5
	c0.2,0,0.4-0.1,0.5-0.2c1.3-1.6,3.2-2.5,5.1-3.5c4.8-2.4,10.3-5.2,10.9-18.9c0.1-1.6,0.8-2.6,1.9-2.7c1.3-0.1,2.9,0.9,3.5,3
	c1.9,6.8,1.9,12.6,0,17.9c-0.1,0.2,0,0.4,0.1,0.6c0.1,0.2,0.3,0.3,0.6,0.3h18.2c2.8,0,5.1,2.3,5.1,5.2c0,2.9-2.3,5.2-5.1,5.2h-1.8
	c-0.4,0-0.7,0.3-0.7,0.7c0,0.4,0.3,0.7,0.7,0.7c2.8,0,5.1,2.3,5.1,5.2C67.7,42.9,65.4,45.2,62.6,45.2"/>
</svg>
