<?xml version="1.0" encoding="utf-8"?>
<!-- Generator: Adobe Illustrator 23.1.0, SVG Export Plug-In . SVG Version: 6.00 Build 0)  -->
<svg version="1.1" id="Layer_1" xmlns="http://www.w3.org/2000/svg" xmlns:xlink="http://www.w3.org/1999/xlink" x="0px" y="0px"
	 width="47px" height="24.4px" viewBox="0 0 47 24.4" style="enable-background:new 0 0 47 24.4;" xml:space="preserve">
<style type="text/css">
	.st0{fill:none;stroke:#FFDA30;stroke-width:1.5;stroke-miterlimit:10;}
	.st1{fill:#FFFFFF;stroke:#FFDA30;stroke-width:1.5;stroke-miterlimit:10;}
</style>
<g>
	<line class="st0" x1="9.4" y1="0.8" x2="9.4" y2="9.4"/>
	<line class="st0" x1="18" y1="0.8" x2="18" y2="9.4"/>
	<line class="st0" x1="26.6" y1="0.8" x2="26.6" y2="9.4"/>
	<line class="st0" x1="35.2" y1="0.8" x2="35.2" y2="9.4"/>
	<path class="st1" d="M42.7,20.8h1.8c1,0,1.7-0.8,1.7-1.7v-8.7c0-0.7-0.1-1.4-0.2-2.1l-0.4-2.5c-0.5-2.9-3-5-5.9-5H4.1
		c-1.8,0-3.3,1.5-3.3,3.3v15c0,1,0.8,1.7,1.7,1.7h1.2"/>
	<line class="st0" x1="15" y1="20.8" x2="37" y2="20.8"/>
	<circle class="st1" cx="6.5" cy="20.8" r="2.8"/>
	<circle class="st1" cx="12.2" cy="20.8" r="2.8"/>
	<circle class="st1" cx="39.8" cy="20.8" r="2.8"/>
	<line class="st0" x1="3.7" y1="13.4" x2="46.2" y2="13.4"/>
	<line class="st0" x1="17.6" y1="17" x2="35.2" y2="17"/>
	<g>
		<path class="st1" d="M40.8,11.4c0-1.1-0.9-2.1-2.1-2.1"/>
		<path class="st1" d="M40.8,11.4c0,1.1,0.9,2.1,2.1,2.1"/>
	</g>
	<line class="st0" x1="38.7" y1="9.4" x2="0.8" y2="9.4"/>
</g>
</svg>
